<svg width="192" height="192" version="1.1" xmlns="http://www.w3.org/2000/svg" desc="Created with imagetracer.js version 1.2.6" ><path fill="rgb(0,8,34)" stroke="rgb(0,8,34)" stroke-width="1" opacity="1" d="M 48.5 21 L 94.5 22 L 95.5 21 L 143.5 21 L 145.5 23 L 160 23 L 159.5 32 L 159 27 L 144.5 27 L 144 24.5 L 142.5 23 L 96.5 23 L 95.5 24 L 64.5 24 L 63.5 23 L 49.5 23 L 48 27 L 33.5 27 Q 32.5 27 33 31.5 L 32 31.5 L 32 24 L 39.5 24 L 40.5 22 L 47.5 22 L 48.5 21 Z " /><path fill="rgb(0,8,34)" stroke="rgb(0,8,34)" stroke-width="1" opacity="1" d="M 47.5 29 L 48.5 30 L 64 30 L 63.5 32 L 47 32 L 47.5 29 Z " /><path fill="rgb(0,8,34)" stroke="rgb(0,8,34)" stroke-width="1" opacity="1" d="M 144.5 29 L 145 32 L 96.5 32 L 96 30 L 143.5 30 L 144.5 29 Z " /><path fill="rgb(0,8,34)" stroke="rgb(0,8,34)" stroke-width="1" opacity="1" d="M 165.5 31 L 169 33.5 L 170 46.5 L 172 48.5 L 172 142.5 Q 169.2 144.2 171 150.5 L 169.5 152 Q 166.9 151.2 168 154.5 L 164.5 160 Q 160.8 159.3 160 161.5 Q 160.8 165.3 158.5 166 L 152.5 166 L 144.5 168 L 47.5 168 L 46.5 167 L 33.5 166 L 32 164.5 Q 32.8 160.8 30.5 160 Q 26.8 160.8 26 158.5 L 21 147.5 L 20 113.5 L 21 112.5 L 21 80.5 L 20 79.5 L 20 48.5 L 22 46.5 L 23 33.5 L 24.5 32 L 27 32.5 L 25 33 L 25 46.5 L 24 47.5 L 28 49 L 28 78.5 L 26.5 80 L 24 79.5 L 24 48.5 L 22 49.5 L 23 144.5 L 22 146.5 L 24.5 151 L 29 151 L 29 144.5 L 30 143.5 L 30 129 L 32 128.5 L 31.5 127 Q 33.8 127.8 33 125.5 L 36 125.5 L 33.5 129 L 32 129.5 L 32 150.5 L 29 151 L 29 159 L 40 160.5 L 33 161 L 33 164 L 39.5 164 L 40.5 163 L 48 163 L 48.5 166 L 142.5 166 L 144 163 L 159 164 L 159 161 L 152.5 161 L 152.5 160 L 163 159 L 163 151.5 L 159 151 L 159 144.5 L 160 143.5 L 160 129.5 L 157.5 128 L 156 128.5 L 157 126.5 L 155 126.5 L 161 119.5 L 159 117.5 L 158 112.5 L 159 110.5 L 158 108.5 L 159 108.5 L 159.5 110 L 161 106.5 L 159 99 Q 162 100.3 161 96.5 Q 158.8 95.3 160 90.5 L 161 87.5 Q 161.6 82.9 159 81.5 L 161 78.5 L 159 75.5 L 160 72 Q 157 73 158 70 L 160 69.5 L 157 67.5 L 161 67 L 160 63.5 L 160 61.5 L 161 52.5 L 159.5 48 L 157.5 49 L 158.5 47 L 166 49 L 166 142.5 L 164.5 143 Q 161.3 144.9 163 151 L 169 151 L 169 148.5 L 170 147.5 L 170 48.5 L 168 46.5 L 168 33 Q 163.5 34.3 165.5 31 Z M 161 114 L 160 117 L 161 117 L 161 114 Z " /><path fill="rgb(0,8,34)" stroke="rgb(0,8,34)" stroke-width="1" opacity="1" d="M 48.5 47 Q 52.3 45.8 51 49.5 L 48.5 51 L 47 48.5 L 48.5 47 Z M 48 48 Q 47 51 50 50 Q 51 47 48 48 Z " /><path fill="rgb(0,8,34)" stroke="rgb(0,8,34)" stroke-width="1" opacity="1" d="M 72.5 47 L 83.5 47 L 84.5 48 L 87 47 L 88.5 50 L 94.5 47 L 96 51 L 88.5 52 L 86.5 54 L 81.5 55 L 80.5 53 L 82.5 53 L 84 52.5 L 83 50 L 64.5 51 L 61.5 50 L 58 49.5 L 67.5 48 L 67.5 49 L 64 49.5 L 71.5 50 L 71.5 49 L 69 48.5 L 72.5 47 Z " /><path fill="rgb(0,8,34)" stroke="rgb(0,8,34)" stroke-width="1" opacity="1" d="M 109.5 47 Q 112.8 45.9 112 48.5 L 110 48.5 Q 109.3 50.8 111.5 50 L 114.5 51 L 119.5 50 L 119.5 51 L 109 52 L 108 48.5 L 109.5 47 Z " /><path fill="rgb(0,8,34)" stroke="rgb(0,8,34)" stroke-width="1" opacity="1" d="M 115.5 48 L 119 48.5 L 115.5 49 L 115.5 48 Z " /><path fill="rgb(0,8,34)" stroke="rgb(0,8,34)" stroke-width="1" opacity="1" d="M 120.5 48 Q 127.3 46.7 130 49.5 L 124.5 50 L 120.5 49 L 120.5 48 Z " /><path fill="rgb(0,8,34)" stroke="rgb(0,8,34)" stroke-width="1" opacity="1" d="M 136 49 Q 140.6 47.8 142 50.5 Q 142.8 52.8 140.5 52 L 136 51 L 136 49 Z " /><path fill="rgb(0,8,34)" stroke="rgb(0,8,34)" stroke-width="1" opacity="1" d="M 145.5 50 L 148 51 L 148.5 53 L 153.5 51 Q 156.8 53 156 58 Q 159.3 56.9 158 61 Q 154.3 62.5 155 59.5 Q 152.5 54.7 150 56.5 Q 152.3 55.2 149.5 54 L 144.5 55 L 143 52 Q 145.8 53 145.5 50 Z " /><path fill="rgb(0,8,34)" stroke="rgb(0,8,34)" stroke-width="1" opacity="1" d="M 76.5 51 L 79 51.5 L 76.5 52 L 76.5 51 Z " /><path fill="rgb(0,8,34)" stroke="rgb(0,8,34)" stroke-width="1" opacity="1" d="M 99.5 52 Q 105.2 50.4 103 56 Q 99.2 57 98 54.5 L 99.5 52 Z " /><path fill="rgb(0,8,34)" stroke="rgb(0,8,34)" stroke-width="1" opacity="1" d="M 128.5 52 L 131 52.5 L 128.5 53 L 128.5 52 Z " /><path fill="rgb(0,8,34)" stroke="rgb(0,8,34)" stroke-width="1" opacity="1" d="M 41.5 56 L 42 58 L 40 57.5 L 41.5 56 Z " /><path fill="rgb(0,8,34)" stroke="rgb(0,8,34)" stroke-width="1" opacity="1" d="M 43.5 56 L 47 56.5 L 43.5 57 L 43.5 56 Z " /><path fill="rgb(0,8,34)" stroke="rgb(0,8,34)" stroke-width="1" opacity="1" d="M 44.5 58 Q 49.3 56.7 48 60 Q 44.2 60.8 44.5 58 Z " /><path fill="rgb(0,8,34)" stroke="rgb(0,8,34)" stroke-width="1" opacity="1" d="M 91.5 58 L 92.5 60 L 91.5 58 Z " /><path fill="rgb(0,8,34)" stroke="rgb(0,8,34)" stroke-width="1" opacity="1" d="M 151.5 58 L 152 62.5 L 150 61.5 L 151.5 58 Z " /><path fill="rgb(0,8,34)" stroke="rgb(0,8,34)" stroke-width="1" opacity="1" d="M 40.5 59 L 41 62.5 L 40 62.5 L 40.5 59 Z " /><path fill="rgb(0,8,34)" stroke="rgb(0,8,34)" stroke-width="1" opacity="1" d="M 89.5 59 L 90.5 61 L 89.5 59 Z " /><path fill="rgb(0,8,34)" stroke="rgb(0,8,34)" stroke-width="1" opacity="1" d="M 42.5 60 Q 44.8 60.8 44 64.5 L 42 63.5 L 42.5 60 Z " /><path fill="rgb(0,8,34)" stroke="rgb(0,8,34)" stroke-width="1" opacity="1" d="M 103 61 L 105 61.5 L 102 63.5 L 103 61 Z " /><path fill="rgb(0,8,34)" stroke="rgb(0,8,34)" stroke-width="1" opacity="1" d="M 92.5 62 L 93.5 64 L 92.5 62 Z " /><path fill="rgb(0,8,34)" stroke="rgb(0,8,34)" stroke-width="1" opacity="1" d="M 97.5 62 Q 100.1 61.3 99 64 L 96 63.5 L 97.5 62 Z " /><path fill="rgb(0,8,34)" stroke="rgb(0,8,34)" stroke-width="1" opacity="1" d="M 36.5 63 L 39 64.5 L 38 69 Q 35.3 67.9 36 70.5 L 34 72.5 Q 35.5 78 33 79.5 Q 35.9 84.1 35 92.5 L 34 92.5 L 33 84 L 31 84.5 L 31 96.5 L 32 98.5 L 31 102.5 L 34 104 L 35 111 Q 31.7 112.3 33 107.5 L 32 107.5 L 32 112 Q 36.9 110.4 35 116 Q 30.5 117.8 32 112.5 L 30 110.5 L 30 80 L 32 80 L 32 72.5 L 33.5 72 L 36 68.5 L 35 64.5 L 36.5 63 Z " /><path fill="rgb(0,8,34)" stroke="rgb(0,8,34)" stroke-width="1" opacity="1" d="M 152.5 64 L 156 68.5 L 154 69.5 L 152.5 64 Z " /><path fill="rgb(0,8,34)" stroke="rgb(0,8,34)" stroke-width="1" opacity="1" d="M 97.5 66 L 98 69.5 L 96.5 72 L 95.5 70 L 97 70 L 97.5 66 Z " /><path fill="rgb(0,8,34)" stroke="rgb(0,8,34)" stroke-width="1" opacity="1" d="M 99.5 69 L 100 71.5 L 99 71.5 L 99.5 69 Z " /><path fill="rgb(0,8,34)" stroke="rgb(0,8,34)" stroke-width="1" opacity="1" d="M 154.5 72 L 155 74.5 L 154 74.5 L 154.5 72 Z " /><path fill="rgb(0,8,34)" stroke="rgb(0,8,34)" stroke-width="1" opacity="1" d="M 66.5 74 L 71.5 78 L 72.5 76 L 73 79 L 76.5 80 L 75 77.5 L 75.5 76 L 77 76.5 L 77.5 75 L 79 77.5 L 78 78.5 L 79.5 81 L 77 82.5 L 77.5 84 L 69.5 84 Q 68.3 87 64 86 L 65.5 82 L 68.5 83 L 72 81.5 L 70 80.5 Q 72.3 79.3 69.5 78 L 67 76.5 L 66.5 74 Z " /><path fill="rgb(0,8,34)" stroke="rgb(0,8,34)" stroke-width="1" opacity="1" d="M 125.5 74 L 127.5 74 Q 129.8 73.3 129 75.5 Q 131.3 76.8 128.5 78 L 128 76 L 126 76 L 126 79 Q 123.3 77.9 124 80.5 L 122.5 80 L 120 78.5 L 121.5 79 Q 123.8 79.8 123 77.5 L 125.5 74 Z " /><path fill="rgb(0,8,34)" stroke="rgb(0,8,34)" stroke-width="1" opacity="1" d="M 156.5 75 L 158 78 Q 154.5 79.1 156.5 75 Z " /><path fill="rgb(0,8,34)" stroke="rgb(0,8,34)" stroke-width="1" opacity="1" d="M 60 78 L 62 78.5 L 62 86 Q 59.3 84.9 60 87.5 L 59 87.5 L 60 78 Z " /><path fill="rgb(0,8,34)" stroke="rgb(0,8,34)" stroke-width="1" opacity="1" d="M 135.5 78 L 136 80 L 139 80.5 L 136.5 81 L 134.5 81 L 132 80.5 L 135 80 L 135.5 78 Z " /><path fill="rgb(0,8,34)" stroke="rgb(0,8,34)" stroke-width="1" opacity="1" d="M 35.5 80 L 36.5 83 L 38 82.5 Q 36.5 85.5 35 82.5 L 35.5 80 Z " /><path fill="rgb(0,8,34)" stroke="rgb(0,8,34)" stroke-width="1" opacity="1" d="M 81.5 82 L 82 84 L 91.5 83 L 94.5 84 L 97 82.5 Q 96.4 87.1 99 88.5 L 99 90.5 L 97.5 93 L 96 88.5 Q 98.7 86.8 94.5 85 L 79 84.5 L 81.5 82 Z " /><path fill="rgb(0,8,34)" stroke="rgb(0,8,34)" stroke-width="1" opacity="1" d="M 140.5 82 L 144.5 83 L 145.5 82 L 148.5 85 L 154.5 83 Q 157.2 84.3 155 85.5 L 157 92 L 152.5 89 L 151.5 92 L 149 88.5 L 151 87.5 L 147.5 86 L 144.5 87 L 143.5 84 L 141.5 85 L 140.5 82 Z " /><path fill="rgb(0,8,34)" stroke="rgb(0,8,34)" stroke-width="1" opacity="1" d="M 144.5 88 L 145.5 90 L 144.5 88 Z " /><path fill="rgb(0,8,34)" stroke="rgb(0,8,34)" stroke-width="1" opacity="1" d="M 60.5 90 L 62 94.5 L 60 95.5 L 60.5 90 Z " /><path fill="rgb(0,8,34)" stroke="rgb(0,8,34)" stroke-width="1" opacity="1" d="M 32.5 93 Q 35 94 34 98.5 L 33 98.5 L 32.5 93 Z " /><path fill="rgb(0,8,34)" stroke="rgb(0,8,34)" stroke-width="1" opacity="1" d="M 62.5 96 L 64.5 99 L 66 98.5 L 64.5 102 L 62 101 L 62.5 96 Z " /><path fill="rgb(0,8,34)" stroke="rgb(0,8,34)" stroke-width="1" opacity="1" d="M 112.5 96 L 115 97 L 115 100 Q 120.2 98.3 119 102 L 113 98.5 L 112.5 96 Z " /><path fill="rgb(0,8,34)" stroke="rgb(0,8,34)" stroke-width="1" opacity="1" d="M 109.5 97 L 112 98 L 110.5 101 L 105.5 100 L 97 103 L 97 99 L 98.5 99 Q 100 96.5 105.5 98 L 107.5 98 L 109.5 97 Z " /><path fill="rgb(0,8,34)" stroke="rgb(0,8,34)" stroke-width="1" opacity="1" d="M 56.5 98 L 57 102.5 L 56 102.5 L 56.5 98 Z " /><path fill="rgb(0,8,34)" stroke="rgb(0,8,34)" stroke-width="1" opacity="1" d="M 153.5 99 L 154.5 101 L 153.5 99 Z " /><path fill="rgb(0,8,34)" stroke="rgb(0,8,34)" stroke-width="1" opacity="1" d="M 36.5 101 L 38 106.5 L 37 106.5 Q 38.1 103.2 35.5 104 L 36 102.5 L 36.5 101 Z " /><path fill="rgb(0,8,34)" stroke="rgb(0,8,34)" stroke-width="1" opacity="1" d="M 120.5 101 Q 124 102.3 123 107 L 125 106.5 L 124 104.5 L 125 102 L 127 102.5 L 126 108 L 122 108 Q 123.1 105.3 120.5 106 L 119 103 L 121 102.5 L 120.5 101 Z " /><path fill="rgb(0,8,34)" stroke="rgb(0,8,34)" stroke-width="1" opacity="1" d="M 132.5 103 L 133.5 105 L 132.5 103 Z " /><path fill="rgb(0,8,34)" stroke="rgb(0,8,34)" stroke-width="1" opacity="1" d="M 57.5 104 L 62 105.5 Q 60.3 109.8 58.5 107 Q 55.4 107.7 57.5 104 Z " /><path fill="rgb(0,8,34)" stroke="rgb(0,8,34)" stroke-width="1" opacity="1" d="M 79.5 104 L 80.5 106 L 79.5 104 Z " /><path fill="rgb(0,8,34)" stroke="rgb(0,8,34)" stroke-width="1" opacity="1" d="M 156.5 104 L 157 106.5 L 156 106.5 L 156.5 104 Z " /><path fill="rgb(0,8,34)" stroke="rgb(0,8,34)" stroke-width="1" opacity="1" d="M 97.5 106 L 98.5 108 L 97.5 106 Z " /><path fill="rgb(0,8,34)" stroke="rgb(0,8,34)" stroke-width="1" opacity="1" d="M 79.5 107 L 80 110.5 L 79 110.5 L 78.5 109 L 77 109.5 L 79.5 107 Z " /><path fill="rgb(0,8,34)" stroke="rgb(0,8,34)" stroke-width="1" opacity="1" d="M 61.5 108 L 62 109.5 L 61.5 112 L 59 111.5 L 61.5 108 Z " /><path fill="rgb(0,8,34)" stroke="rgb(0,8,34)" stroke-width="1" opacity="1" d="M 68.5 108 Q 71.1 107.3 70 110 Q 67.3 108.9 68 111.5 L 69 114 L 65.5 115 L 65 113.5 L 65.5 112 L 63 111.5 L 68.5 108 Z " /><path fill="rgb(0,8,34)" stroke="rgb(0,8,34)" stroke-width="1" opacity="1" d="M 128 108 L 131 108.5 L 130.5 110 L 132 110.5 L 128 112 L 128 108 Z " /><path fill="rgb(0,8,34)" stroke="rgb(0,8,34)" stroke-width="1" opacity="1" d="M 134.5 110 L 136 112.5 L 134 111.5 L 134.5 110 Z " /><path fill="rgb(0,8,34)" stroke="rgb(0,8,34)" stroke-width="1" opacity="1" d="M 24 112 L 28 113.5 L 28 126.5 L 25 129.5 L 24.5 143 L 24 112 Z " /><path fill="rgb(0,8,34)" stroke="rgb(0,8,34)" stroke-width="1" opacity="1" d="M 36 118 Q 38.7 116.9 38 119.5 L 39 122 L 36 120.5 L 36 118 Z " /><path fill="rgb(0,8,34)" stroke="rgb(0,8,34)" stroke-width="1" opacity="1" d="M 94.5 123 L 96 123.5 L 93.5 125 L 94.5 123 Z " /><path fill="rgb(0,8,34)" stroke="rgb(0,8,34)" stroke-width="1" opacity="1" d="M 91.5 124 L 90.5 126 L 91.5 124 Z " /><path fill="rgb(0,8,34)" stroke="rgb(0,8,34)" stroke-width="1" opacity="1" d="M 39 125 Q 44 124.2 46 127.5 L 44.5 128 Q 42.5 124 40.5 128 Q 37.5 128.7 39 125 Z " /><path fill="rgb(0,8,34)" stroke="rgb(0,8,34)" stroke-width="1" opacity="1" d="M 100.5 125 Q 103.1 124.2 102 127.5 L 100.5 129 L 98 128.5 L 100.5 125 Z " /><path fill="rgb(0,8,34)" stroke="rgb(0,8,34)" stroke-width="1" opacity="1" d="M 108.5 127 L 109.5 129 L 108.5 127 Z " /><path fill="rgb(0,8,34)" stroke="rgb(0,8,34)" stroke-width="1" opacity="1" d="M 84.5 129 L 88 130.5 L 84 133.5 L 85 130.5 L 84.5 129 Z " /><path fill="rgb(0,8,34)" stroke="rgb(0,8,34)" stroke-width="1" opacity="1" d="M 57.5 132 L 58.5 134 L 56 133.5 L 57.5 132 Z " /><path fill="rgb(0,8,34)" stroke="rgb(0,8,34)" stroke-width="1" opacity="1" d="M 74.5 132 L 77 132.5 L 74.5 133 L 74.5 132 Z " /><path fill="rgb(0,8,34)" stroke="rgb(0,8,34)" stroke-width="1" opacity="1" d="M 82.5 132 L 81.5 134 L 79 133.5 L 82.5 132 Z " /><path fill="rgb(0,8,34)" stroke="rgb(0,8,34)" stroke-width="1" opacity="1" d="M 120.5 132 L 125 132.5 L 120.5 133 L 120.5 132 Z " /><path fill="rgb(0,8,34)" stroke="rgb(0,8,34)" stroke-width="1" opacity="1" d="M 134.5 132 L 137 132.5 L 134.5 133 L 134.5 132 Z " /><path fill="rgb(0,8,34)" stroke="rgb(0,8,34)" stroke-width="1" opacity="1" d="M 140.5 132 L 142 132.5 L 139.5 134 L 140.5 132 Z " /><path fill="rgb(0,8,34)" stroke="rgb(0,8,34)" stroke-width="1" opacity="1" d="M 128 133 L 131 133.5 L 128 135 L 128 133 Z " /><path fill="rgb(0,8,34)" stroke="rgb(0,8,34)" stroke-width="1" opacity="1" d="M 47 134 Q 53.3 133 56.5 136 L 58 135.5 L 58.5 137 L 64 137 Q 65.1 134.3 62.5 135 L 62.5 134 L 65.5 135 L 67.5 134 L 68.5 138 L 61 138.5 L 64 139.5 L 64 141.5 L 63.5 144 L 48 144 L 48.5 142 L 57.5 142 L 60 138 L 55.5 137 Q 54.3 139.3 49.5 138 L 47 137 L 47 134 Z M 49 135 L 49 136 L 51 136 L 49 135 Z " /><path fill="rgb(0,8,34)" stroke="rgb(0,8,34)" stroke-width="1" opacity="1" d="M 87.5 134 L 86.5 136 L 84 135.5 L 87.5 134 Z " /><path fill="rgb(0,8,34)" stroke="rgb(0,8,34)" stroke-width="1" opacity="1" d="M 133.5 134 L 138 134.5 L 136 135.5 L 138.5 136 L 140 135.5 L 132.5 140 L 124.5 141 L 119 139.5 L 119.5 137 L 131.5 136 L 133.5 134 Z M 126 138 L 126 139 L 128 139 L 126 138 Z " /><path fill="rgb(0,8,34)" stroke="rgb(0,8,34)" stroke-width="1" opacity="1" d="M 142.5 135 L 145 136.5 L 143.5 137 L 142.5 135 Z " /><path fill="rgb(0,8,34)" stroke="rgb(0,8,34)" stroke-width="1" opacity="1" d="M 80.5 142 L 81 143.5 Q 79.6 146.3 75 145 L 75.5 143 L 80 144 L 80.5 142 Z " /><path fill="rgb(0,8,34)" stroke="rgb(0,8,34)" stroke-width="1" opacity="1" d="M 111.5 142 L 118.5 142 L 119 144 L 112.5 144 L 111.5 142 Z " /><path fill="rgb(0,8,34)" stroke="rgb(0,8,34)" stroke-width="1" opacity="1" d="M 137 142 L 143.5 142 L 144 143.5 L 144.5 145 L 137 144 L 137 142 Z " /><path fill="rgb(0,8,36)" stroke="rgb(0,8,36)" stroke-width="1" opacity="1" d="M 33 27 L 47.5 27 L 48 28.5 L 47 32 L 33.5 32 L 31 33 L 32 67 Q 34.7 68.1 34 65.5 L 35 65.5 L 32 69.5 L 32 80 L 30 79.5 L 30 47.5 L 25 47 L 25 33 L 33 32 L 33 27 Z " /><path fill="rgb(0,8,36)" stroke="rgb(0,8,36)" stroke-width="1" opacity="1" d="M 65 27 L 94.5 27 L 95 28.5 L 96 32 L 64.5 32 L 64 29.5 L 65 27 Z " /><path fill="rgb(0,8,36)" stroke="rgb(0,8,36)" stroke-width="1" opacity="1" d="M 144 27 L 158.5 27 L 159 32 L 165 32 L 165 47 L 160 48 L 160 33.5 L 158.5 32 L 145.5 32 L 145 29.5 L 144 27 Z " /><path fill="rgb(0,8,36)" stroke="rgb(0,8,36)" stroke-width="1" opacity="1" d="M 100.5 47 Q 104.3 46.3 105 48.5 L 103.5 52 L 102 51.5 Q 105.8 49.8 102.5 48 Q 99.2 46.9 100 49.5 L 98 50.5 L 100.5 47 Z " /><path fill="rgb(0,8,36)" stroke="rgb(0,8,36)" stroke-width="1" opacity="1" d="M 148.5 47 Q 153 46 154 48.5 L 153.5 51 L 150.5 49 L 148.5 52 L 144 49.5 L 148.5 47 Z " /><path fill="rgb(0,8,36)" stroke="rgb(0,8,36)" stroke-width="1" opacity="1" d="M 142.5 48 L 143 50 L 141 49.5 L 142.5 48 Z " /><path fill="rgb(0,8,36)" stroke="rgb(0,8,36)" stroke-width="1" opacity="1" d="M 169.5 49 L 170 145 Q 164 142.8 166 149.5 L 166.5 151 L 163 151 L 163 159 L 159.5 159 L 152 160.5 L 159 161 L 158.5 163 L 144.5 163 L 144 164.5 L 142.5 166 L 49 166 L 47.5 163 L 33.5 163 L 33 161 L 46.5 160 L 48 163 L 79.5 163 L 80 161.5 L 81.5 160 L 128 160 L 128 145.5 L 124 145 L 124 143.5 L 123.5 142 Q 124.8 145 129 144 L 128 141.5 L 131.5 140 L 131 141.5 L 130 143.5 L 132.5 145 L 144.5 145 L 145.5 144 L 159 144 L 159 151 L 163 151 L 163 144 L 168.5 144 L 169 143.5 L 169.5 49 Z " /><path fill="rgb(0,8,36)" stroke="rgb(0,8,36)" stroke-width="1" opacity="1" d="M 158.5 50 Q 160.8 49.3 160 51.5 L 161 55.5 L 160 59 L 158 58.5 L 159 55 Q 154.9 56.3 156 53 Q 159.8 54.5 159 51.5 L 158.5 50 Z " /><path fill="rgb(0,8,36)" stroke="rgb(0,8,36)" stroke-width="1" opacity="1" d="M 53.5 51 L 58 51.5 L 53.5 52 L 53.5 51 Z " /><path fill="rgb(0,8,36)" stroke="rgb(0,8,36)" stroke-width="1" opacity="1" d="M 92.5 51 L 98 54.5 L 96.5 55 L 91 52.5 L 92.5 51 Z " /><path fill="rgb(0,8,36)" stroke="rgb(0,8,36)" stroke-width="1" opacity="1" d="M 109.5 52 L 107.5 55 L 105.5 56 L 107.5 53 L 109.5 52 Z " /><path fill="rgb(0,8,36)" stroke="rgb(0,8,36)" stroke-width="1" opacity="1" d="M 141.5 52 Q 143.8 51.3 143 53.5 L 141.5 52 Z " /><path fill="rgb(0,8,36)" stroke="rgb(0,8,36)" stroke-width="1" opacity="1" d="M 87.5 53 Q 89.8 52.3 89 54.5 L 89.5 56 L 87.5 53 Z " /><path fill="rgb(0,8,36)" stroke="rgb(0,8,36)" stroke-width="1" opacity="1" d="M 48.5 55 L 51 55.5 L 48.5 56 L 48.5 55 Z " /><path fill="rgb(0,8,36)" stroke="rgb(0,8,36)" stroke-width="1" opacity="1" d="M 96 58 L 100.5 59 L 102 58.5 L 101 60.5 L 101.5 62 Q 96.7 63.7 98 59.5 L 95 60.5 L 96 58 Z " /><path fill="rgb(0,8,36)" stroke="rgb(0,8,36)" stroke-width="1" opacity="1" d="M 154 61 L 156 61 Q 154.3 66.2 158 65 L 157 61.5 L 161 64.5 L 160.5 66 L 154 66 L 154 61 Z " /><path fill="rgb(0,8,36)" stroke="rgb(0,8,36)" stroke-width="1" opacity="1" d="M 40.5 66 L 40 67.5 L 39 69.5 L 39 71.5 L 38.5 73 L 38 68.5 L 40.5 66 Z " /><path fill="rgb(0,8,36)" stroke="rgb(0,8,36)" stroke-width="1" opacity="1" d="M 65.5 71 L 68 71.5 L 65.5 72 L 65.5 71 Z " /><path fill="rgb(0,8,36)" stroke="rgb(0,8,36)" stroke-width="1" opacity="1" d="M 71.5 72 L 72.5 74 L 71.5 72 Z " /><path fill="rgb(0,8,36)" stroke="rgb(0,8,36)" stroke-width="1" opacity="1" d="M 128.5 72 L 132 73.5 L 130.5 73 Q 127.5 73.5 128.5 72 Z " /><path fill="rgb(0,8,36)" stroke="rgb(0,8,36)" stroke-width="1" opacity="1" d="M 36 75 Q 39 74 38 77 Q 35 78 36 75 Z " /><path fill="rgb(0,8,36)" stroke="rgb(0,8,36)" stroke-width="1" opacity="1" d="M 61.5 75 L 68 77.5 L 64.5 83 L 64 80 Q 66.7 81.1 66 78.5 Q 64.8 75.3 61 76 L 60.5 78 L 60 76.5 L 61.5 75 Z " /><path fill="rgb(0,8,36)" stroke="rgb(0,8,36)" stroke-width="1" opacity="1" d="M 121.5 75 L 122 76.5 L 120 77.5 L 121.5 75 Z " /><path fill="rgb(0,8,36)" stroke="rgb(0,8,36)" stroke-width="1" opacity="1" d="M 132.5 75 Q 135.8 76.2 135 80 L 129.5 79 L 128.5 82 L 125 79.5 L 126.5 80 L 128 80 L 128.5 78 L 133.5 78 L 132.5 75 Z " /><path fill="rgb(0,8,36)" stroke="rgb(0,8,36)" stroke-width="1" opacity="1" d="M 159.5 77 L 160 80 Q 156.2 81.5 157 78.5 L 159 78.5 L 159.5 77 Z " /><path fill="rgb(0,8,36)" stroke="rgb(0,8,36)" stroke-width="1" opacity="1" d="M 141 80 L 143 80.5 L 141 81.5 L 141 80 Z " /><path fill="rgb(0,8,36)" stroke="rgb(0,8,36)" stroke-width="1" opacity="1" d="M 151.5 80 Q 153.8 79.3 153 81.5 L 153.5 83 L 151.5 80 Z " /><path fill="rgb(0,8,36)" stroke="rgb(0,8,36)" stroke-width="1" opacity="1" d="M 88.5 81 L 93 81.5 L 88.5 82 L 88.5 81 Z " /><path fill="rgb(0,8,36)" stroke="rgb(0,8,36)" stroke-width="1" opacity="1" d="M 131.5 81 Q 134 84.2 140 83 L 141 85.5 L 138.5 84 Q 131.9 84.9 131.5 81 Z " /><path fill="rgb(0,8,36)" stroke="rgb(0,8,36)" stroke-width="1" opacity="1" d="M 146 81 L 148 81 Q 146.9 83.7 149.5 83 L 149.5 84 L 146 83 L 146 81 Z " /><path fill="rgb(0,8,36)" stroke="rgb(0,8,36)" stroke-width="1" opacity="1" d="M 159.5 82 L 161 87.5 L 157.5 90 L 158.5 88 Q 160.8 88.8 160 86.5 L 156 84.5 L 159.5 82 Z " /><path fill="rgb(0,8,36)" stroke="rgb(0,8,36)" stroke-width="1" opacity="1" d="M 57 84 Q 61 82.6 59 89.5 L 58 89.5 L 57 84 Z " /><path fill="rgb(0,8,36)" stroke="rgb(0,8,36)" stroke-width="1" opacity="1" d="M 72.5 85 L 74 85.5 L 72.5 88 Q 69.5 86.5 72.5 85 Z " /><path fill="rgb(0,8,36)" stroke="rgb(0,8,36)" stroke-width="1" opacity="1" d="M 62.5 86 L 63 88 L 66 89.5 L 64 89.5 L 65 92.5 L 63.5 98 Q 60.8 93.3 62.5 86 Z " /><path fill="rgb(0,8,36)" stroke="rgb(0,8,36)" stroke-width="1" opacity="1" d="M 66.5 86 L 70 86.5 Q 68.8 89.3 67.5 87 L 66.5 86 Z " /><path fill="rgb(0,8,36)" stroke="rgb(0,8,36)" stroke-width="1" opacity="1" d="M 75.5 86 L 79.5 87 L 82.5 86 L 82.5 87 L 76.5 88 L 75.5 86 Z " /><path fill="rgb(0,8,36)" stroke="rgb(0,8,36)" stroke-width="1" opacity="1" d="M 85.5 86 L 88 87.5 L 86.5 88 L 85.5 86 Z " /><path fill="rgb(0,8,36)" stroke="rgb(0,8,36)" stroke-width="1" opacity="1" d="M 94.5 86 L 95.5 88 L 93 87.5 L 94.5 86 Z " /><path fill="rgb(0,8,36)" stroke="rgb(0,8,36)" stroke-width="1" opacity="1" d="M 100.5 88 L 100 89.5 L 99.5 91 L 99 89.5 L 100.5 88 Z " /><path fill="rgb(0,8,36)" stroke="rgb(0,8,36)" stroke-width="1" opacity="1" d="M 103.5 90 L 104 92.5 L 101 94 L 100 96.5 L 104 97.5 L 98.5 98 L 100 95.5 L 103.5 90 Z " /><path fill="rgb(0,8,36)" stroke="rgb(0,8,36)" stroke-width="1" opacity="1" d="M 105.5 93 L 106.5 95 L 104.5 96 L 105 94.5 L 105.5 93 Z " /><path fill="rgb(0,8,36)" stroke="rgb(0,8,36)" stroke-width="1" opacity="1" d="M 154 93 L 158 93.5 L 154.5 95 L 154 93 Z " /><path fill="rgb(0,8,36)" stroke="rgb(0,8,36)" stroke-width="1" opacity="1" d="M 113.5 99 Q 116.5 100.5 113.5 102 L 113.5 99 Z " /><path fill="rgb(0,8,36)" stroke="rgb(0,8,36)" stroke-width="1" opacity="1" d="M 58.5 101 L 60 104 Q 56.5 105.1 58.5 101 Z " /><path fill="rgb(0,8,36)" stroke="rgb(0,8,36)" stroke-width="1" opacity="1" d="M 103.5 101 Q 105.8 100.3 105 102.5 L 103.5 101 Z " /><path fill="rgb(0,8,36)" stroke="rgb(0,8,36)" stroke-width="1" opacity="1" d="M 106.5 101 L 111 103.5 L 108.5 104 L 106.5 101 Z " /><path fill="rgb(0,8,36)" stroke="rgb(0,8,36)" stroke-width="1" opacity="1" d="M 64.5 103 L 66 105.5 L 64 104.5 L 64.5 103 Z " /><path fill="rgb(0,8,36)" stroke="rgb(0,8,36)" stroke-width="1" opacity="1" d="M 129.5 104 L 134 107.5 Q 134.8 109.8 132.5 109 L 131 109.5 L 132 107.5 L 129.5 104 Z " /><path fill="rgb(0,8,36)" stroke="rgb(0,8,36)" stroke-width="1" opacity="1" d="M 158.5 105 L 159 107.5 L 158 107.5 L 158.5 105 Z " /><path fill="rgb(0,8,36)" stroke="rgb(0,8,36)" stroke-width="1" opacity="1" d="M 120.5 106 L 120 107.5 Q 120.8 110.1 117.5 109 L 117.5 108 L 120.5 106 Z " /><path fill="rgb(0,8,36)" stroke="rgb(0,8,36)" stroke-width="1" opacity="1" d="M 156.5 107 L 157 109.5 L 156 109.5 L 156.5 107 Z " /><path fill="rgb(0,8,36)" stroke="rgb(0,8,36)" stroke-width="1" opacity="1" d="M 70 109 Q 73 108 72 111 L 75.5 111 L 77 110.5 Q 75.8 113 72 112 Q 73.3 115 69.5 114 L 69.5 113 L 71 112.5 L 70 109 Z " /><path fill="rgb(0,8,36)" stroke="rgb(0,8,36)" stroke-width="1" opacity="1" d="M 125.5 109 L 128 109.5 L 125.5 110 L 125.5 109 Z " /><path fill="rgb(0,8,36)" stroke="rgb(0,8,36)" stroke-width="1" opacity="1" d="M 36.5 114 L 37.5 116 L 36.5 114 Z " /><path fill="rgb(0,8,36)" stroke="rgb(0,8,36)" stroke-width="1" opacity="1" d="M 31.5 115 L 32 117 L 34.5 118 L 35.5 116 L 36 117.5 L 35 120.5 L 31.5 127 L 31 123 L 34 121.5 Q 35.5 116.3 31 118 L 31.5 115 Z " /><path fill="rgb(0,8,36)" stroke="rgb(0,8,36)" stroke-width="1" opacity="1" d="M 156 117 Q 159.3 115.9 158 120 L 156 120 L 156 126 L 152.5 126 L 151 126.5 L 155 125 L 156 117 Z " /><path fill="rgb(0,8,36)" stroke="rgb(0,8,36)" stroke-width="1" opacity="1" d="M 40.5 120 L 42 122.5 L 40 121.5 L 40.5 120 Z " /><path fill="rgb(0,8,36)" stroke="rgb(0,8,36)" stroke-width="1" opacity="1" d="M 98.5 120 Q 101.1 119.2 100 122.5 L 99 122.5 L 98.5 120 Z " /><path fill="rgb(0,8,36)" stroke="rgb(0,8,36)" stroke-width="1" opacity="1" d="M 91 126 L 95 126.5 L 93 127.5 L 95.5 129 L 97.5 128 L 97.5 129 Q 94.5 128.2 96 132 L 91.5 132 L 89 135.5 L 88 144 L 82 144 L 82 137.5 L 84 136.5 L 83 139.5 L 85.5 141 L 87 139.5 L 88 131.5 L 91 126 Z " /><path fill="rgb(0,8,36)" stroke="rgb(0,8,36)" stroke-width="1" opacity="1" d="M 37.5 127 L 38.5 129 L 37.5 127 Z " /><path fill="rgb(0,8,36)" stroke="rgb(0,8,36)" stroke-width="1" opacity="1" d="M 44.5 128 L 49.5 129 Q 50.8 126.8 52 129.5 Q 50.7 133.7 55.5 132 L 55.5 133 L 47 131 Q 48.3 128 44.5 129 L 44.5 128 Z " /><path fill="rgb(0,8,36)" stroke="rgb(0,8,36)" stroke-width="1" opacity="1" d="M 25.5 129 L 26 142.5 L 27.5 144 L 29 144.5 L 29 151 L 32 151.5 L 32 159 L 29 159 L 29 151 L 25.5 151 L 26 149.5 Q 27 144.5 24 143.5 L 25 142.5 L 25.5 129 Z " /><path fill="rgb(0,8,36)" stroke="rgb(0,8,36)" stroke-width="1" opacity="1" d="M 111.5 131 L 116 133.5 L 114.5 133 Q 110.7 133.5 111.5 131 Z " /><path fill="rgb(0,8,36)" stroke="rgb(0,8,36)" stroke-width="1" opacity="1" d="M 120.5 134 L 128 134.5 L 119.5 136 L 120.5 134 Z " /><path fill="rgb(0,8,36)" stroke="rgb(0,8,36)" stroke-width="1" opacity="1" d="M 75.5 135 L 77.5 136 L 80 135 L 80 138 L 71 138 Q 69.7 134.7 74.5 136 L 75.5 135 Z " /><path fill="rgb(0,8,36)" stroke="rgb(0,8,36)" stroke-width="1" opacity="1" d="M 111.5 136 L 112 138 L 117 137.5 L 116.5 136 Q 118.8 135.3 118 137.5 L 119 140 L 115 140 Q 116.1 143.3 112 142 Q 110.8 139 114.5 140 L 114.5 139 L 111 137.5 L 111.5 136 Z " /><path fill="rgb(0,8,36)" stroke="rgb(0,8,36)" stroke-width="1" opacity="1" d="M 144.5 137 L 143.5 139 L 142 139.5 L 143.5 142 Q 140.2 143.1 141 140.5 L 140 138 L 144.5 137 Z " /><path fill="rgb(0,8,36)" stroke="rgb(0,8,36)" stroke-width="1" opacity="1" d="M 93.5 139 L 97 140.5 Q 97.8 144.3 95.5 145 Q 91.8 145.8 91 143.5 Q 90.5 139.5 93.5 139 Z M 93 140 L 92 143 L 96 144 Q 98 138 93 140 Z " /><path fill="rgb(0,8,36)" stroke="rgb(0,8,36)" stroke-width="1" opacity="1" d="M 73.5 140 L 80 141.5 L 75 142 L 74.5 144 L 72 142.5 L 74 141.5 L 73.5 140 Z " /><path fill="rgb(0,5,19)" stroke="rgb(0,5,19)" stroke-width="1" opacity="1" d="M 31.5 15 L 47.5 15 L 48.5 16 L 143.5 16 L 144.5 15 L 160.5 15 L 161.5 16 L 168 16 Q 169.3 19 165.5 18 Q 164.4 20.8 161 20 L 160.5 24 L 158.5 21 L 144.5 21 L 143.5 19 L 96.5 19 L 95.5 20 L 64.5 20 L 63.5 19 L 48.5 19 L 46.5 21 L 32 21 L 31.5 24 L 31 20 L 24 18 Q 22.9 14.5 30.5 16 L 31.5 15 Z " /><path fill="rgb(0,5,19)" stroke="rgb(0,5,19)" stroke-width="1" opacity="1" d="M 16 24 Q 19 22.8 18 26.5 Q 20.8 27.6 20 31 L 23 31.5 L 20 33.5 L 20 47.5 L 19 48.5 L 19 143.5 L 20 144.5 L 20 152 L 24 154 L 24 160 L 26.5 160 L 31 162.5 L 33.5 168 L 158.5 168 L 160 166.5 L 162.5 161 L 168 160 L 168 154 L 170 154 Q 169.3 150.9 172 151.5 L 172 144.5 L 173 143.5 L 173 48.5 L 172 47.5 L 172 33.5 L 170.5 32 L 169 31.5 L 172 31 L 174 24 L 176 24.5 L 176 31.5 Q 173.3 33.3 175 39.5 L 177 48.5 L 177 159.5 L 175.5 161 L 168 161 L 167.5 164 L 165.5 161 L 165 165 L 161 165.5 L 164 167.5 L 161 168 L 161 175.5 L 159.5 177 L 81.5 177 L 80 175.5 L 79 171 L 49.5 171 L 49 172.5 L 48 177 L 32.5 177 L 31 175.5 L 31 168.5 L 28.5 168 L 28.5 167 L 31 165.5 L 27 165 L 26.5 161 L 24.5 164 L 24 161 L 16.5 161 L 15 159.5 L 16 48.5 L 15 47.5 L 15 31.5 L 16 30.5 L 16 24 Z " /><path fill="rgb(0,5,19)" stroke="rgb(0,5,19)" stroke-width="1" opacity="1" d="M 24 24 L 26 24.5 L 24 25.5 L 24 24 Z " /><path fill="rgb(0,5,19)" stroke="rgb(0,5,19)" stroke-width="1" opacity="1" d="M 166.5 24 Q 168.8 23.3 168 25.5 L 166.5 24 Z " /><path fill="rgb(0,5,19)" stroke="rgb(0,5,19)" stroke-width="1" opacity="1" d="M 62.5 53 L 65 53.5 L 62.5 54 L 62.5 53 Z " /><path fill="rgb(0,5,19)" stroke="rgb(0,5,19)" stroke-width="1" opacity="1" d="M 72.5 53 L 75 53.5 L 72.5 54 L 72.5 53 Z " /><path fill="rgb(0,5,19)" stroke="rgb(0,5,19)" stroke-width="1" opacity="1" d="M 118.5 53 L 123 53.5 L 118.5 54 L 118.5 53 Z " /><path fill="rgb(0,5,19)" stroke="rgb(0,5,19)" stroke-width="1" opacity="1" d="M 131.5 53 L 136 53.5 L 131.5 54 L 131.5 53 Z " /><path fill="rgb(0,5,19)" stroke="rgb(0,5,19)" stroke-width="1" opacity="1" d="M 51.5 57 L 49.5 60 L 48 59.5 L 51.5 57 Z " /><path fill="rgb(0,5,19)" stroke="rgb(0,5,19)" stroke-width="1" opacity="1" d="M 108.5 58 L 110 58.5 L 107.5 60 L 108.5 58 Z " /><path fill="rgb(0,5,19)" stroke="rgb(0,5,19)" stroke-width="1" opacity="1" d="M 147.5 59 L 149.5 62 Q 147.3 62.8 148 60.5 L 147.5 59 Z " /><path fill="rgb(0,5,19)" stroke="rgb(0,5,19)" stroke-width="1" opacity="1" d="M 89.5 60 L 91 62.5 L 90 62.5 L 89.5 60 Z " /><path fill="rgb(0,5,19)" stroke="rgb(0,5,19)" stroke-width="1" opacity="1" d="M 150.5 64 L 152 66.5 L 151 66.5 L 150.5 64 Z " /><path fill="rgb(0,5,19)" stroke="rgb(0,5,19)" stroke-width="1" opacity="1" d="M 123.5 68 L 130 68.5 L 122.5 70 L 123.5 68 Z " /><path fill="rgb(0,5,19)" stroke="rgb(0,5,19)" stroke-width="1" opacity="1" d="M 63.5 69 L 62.5 71 L 60.5 72 L 61.5 70 L 63.5 69 Z " /><path fill="rgb(0,5,19)" stroke="rgb(0,5,19)" stroke-width="1" opacity="1" d="M 131.5 69 L 134 70.5 L 132.5 71 L 131.5 69 Z " /><path fill="rgb(0,5,19)" stroke="rgb(0,5,19)" stroke-width="1" opacity="1" d="M 95.5 72 L 96 74.5 L 95 74.5 L 95.5 72 Z " /><path fill="rgb(0,5,19)" stroke="rgb(0,5,19)" stroke-width="1" opacity="1" d="M 118.5 73 L 119 76.5 L 118 76.5 L 118.5 73 Z " /><path fill="rgb(0,5,19)" stroke="rgb(0,5,19)" stroke-width="1" opacity="1" d="M 136.5 73 L 138 77.5 L 137 77.5 L 136.5 73 Z " /><path fill="rgb(0,5,19)" stroke="rgb(0,5,19)" stroke-width="1" opacity="1" d="M 101.5 77 L 102 81.5 L 101 81.5 L 101.5 77 Z " /><path fill="rgb(0,5,19)" stroke="rgb(0,5,19)" stroke-width="1" opacity="1" d="M 144.5 78 L 152 78.5 L 144.5 79 L 144.5 78 Z " /><path fill="rgb(0,5,19)" stroke="rgb(0,5,19)" stroke-width="1" opacity="1" d="M 73.5 89 L 77 89.5 L 73.5 90 L 73.5 89 Z " /><path fill="rgb(0,5,19)" stroke="rgb(0,5,19)" stroke-width="1" opacity="1" d="M 80.5 89 L 89 89.5 L 80.5 90 L 80.5 89 Z " /><path fill="rgb(0,5,19)" stroke="rgb(0,5,19)" stroke-width="1" opacity="1" d="M 106.5 90 L 114 95.5 L 112.5 95 L 110.5 95 L 106.5 90 Z " /><path fill="rgb(0,5,19)" stroke="rgb(0,5,19)" stroke-width="1" opacity="1" d="M 146.5 91 L 150 93.5 L 148.5 94 L 146.5 91 Z " /><path fill="rgb(0,5,19)" stroke="rgb(0,5,19)" stroke-width="1" opacity="1" d="M 67.5 92 L 68 94.5 L 67 94.5 L 67.5 92 Z " /><path fill="rgb(0,5,19)" stroke="rgb(0,5,19)" stroke-width="1" opacity="1" d="M 150.5 95 L 151.5 97 L 150.5 95 Z " /><path fill="rgb(0,5,19)" stroke="rgb(0,5,19)" stroke-width="1" opacity="1" d="M 67.5 96 L 68 99.5 L 67 99.5 L 67.5 96 Z " /><path fill="rgb(0,5,19)" stroke="rgb(0,5,19)" stroke-width="1" opacity="1" d="M 117.5 97 L 121 98.5 L 118.5 99 L 117.5 97 Z " /><path fill="rgb(0,5,19)" stroke="rgb(0,5,19)" stroke-width="1" opacity="1" d="M 154.5 101 L 155 105.5 L 154 105.5 L 154.5 101 Z " /><path fill="rgb(0,5,19)" stroke="rgb(0,5,19)" stroke-width="1" opacity="1" d="M 131.5 102 L 134 103.5 L 132.5 103 L 131.5 102 Z " /><path fill="rgb(0,5,19)" stroke="rgb(0,5,19)" stroke-width="1" opacity="1" d="M 112.5 105 L 115 105.5 L 112.5 106 L 112.5 105 Z " /><path fill="rgb(0,5,19)" stroke="rgb(0,5,19)" stroke-width="1" opacity="1" d="M 98.5 106 L 101 106.5 L 98.5 107 L 98.5 106 Z " /><path fill="rgb(0,5,19)" stroke="rgb(0,5,19)" stroke-width="1" opacity="1" d="M 137.5 107 L 138 111.5 L 137 111.5 L 137.5 107 Z " /><path fill="rgb(0,5,19)" stroke="rgb(0,5,19)" stroke-width="1" opacity="1" d="M 57.5 109 L 60 112.5 L 58 111.5 L 57.5 109 Z " /><path fill="rgb(0,5,19)" stroke="rgb(0,5,19)" stroke-width="1" opacity="1" d="M 99.5 109 L 100 112.5 L 99 112.5 L 99.5 109 Z " /><path fill="rgb(0,5,19)" stroke="rgb(0,5,19)" stroke-width="1" opacity="1" d="M 117.5 112 L 119.5 115 L 117.5 112 Z " /><path fill="rgb(0,5,19)" stroke="rgb(0,5,19)" stroke-width="1" opacity="1" d="M 40.5 113 L 42 116.5 L 41 116.5 L 40.5 113 Z " /><path fill="rgb(0,5,19)" stroke="rgb(0,5,19)" stroke-width="1" opacity="1" d="M 76.5 114 L 75.5 116 L 76.5 114 Z " /><path fill="rgb(0,5,19)" stroke="rgb(0,5,19)" stroke-width="1" opacity="1" d="M 100.5 114 L 101 116.5 L 100 116.5 L 100.5 114 Z " /><path fill="rgb(0,5,19)" stroke="rgb(0,5,19)" stroke-width="1" opacity="1" d="M 62.5 115 Q 64.8 114.3 64 116.5 L 62.5 115 Z " /><path fill="rgb(0,5,19)" stroke="rgb(0,5,19)" stroke-width="1" opacity="1" d="M 122.5 115 L 125 116.5 L 123.5 117 L 122.5 115 Z " /><path fill="rgb(0,5,19)" stroke="rgb(0,5,19)" stroke-width="1" opacity="1" d="M 133.5 115 L 132.5 117 L 130 116.5 L 133.5 115 Z " /><path fill="rgb(0,5,19)" stroke="rgb(0,5,19)" stroke-width="1" opacity="1" d="M 94.5 119 L 93.5 121 L 94.5 119 Z " /><path fill="rgb(0,5,19)" stroke="rgb(0,5,19)" stroke-width="1" opacity="1" d="M 90 123 L 92 123.5 L 90 124.5 L 90 123 Z " /><path fill="rgb(0,5,19)" stroke="rgb(0,5,19)" stroke-width="1" opacity="1" d="M 150.5 123 L 146.5 128 L 145 127.5 L 150.5 123 Z " /><path fill="rgb(0,5,19)" stroke="rgb(0,5,19)" stroke-width="1" opacity="1" d="M 108.5 126 L 109.5 128 L 108.5 126 Z " /><path fill="rgb(0,5,19)" stroke="rgb(0,5,19)" stroke-width="1" opacity="1" d="M 112.5 129 L 117 130.5 L 114.5 131 L 112.5 129 Z " /><path fill="rgb(0,5,19)" stroke="rgb(0,5,19)" stroke-width="1" opacity="1" d="M 138.5 130 L 140 130.5 L 135.5 132 L 135.5 131 L 138.5 130 Z " /><path fill="rgb(0,5,19)" stroke="rgb(0,5,19)" stroke-width="1" opacity="1" d="M 59.5 131 L 62 131.5 L 59.5 132 L 59.5 131 Z " /><path fill="rgb(0,5,19)" stroke="rgb(0,5,19)" stroke-width="1" opacity="1" d="M 64.5 132 L 70 132.5 L 64.5 133 L 64.5 132 Z " /><path fill="rgb(0,9,36)" stroke="rgb(0,9,36)" stroke-width="1" opacity="1" d="M 49.5 23 L 95.5 24 L 96.5 23 L 142.5 23 Q 145.5 24.6 144 30 L 96.5 30 L 95 28.5 L 94.5 27 L 65 27 L 63.5 30 L 48 30 L 48 24.5 L 49.5 23 Z " /><path fill="rgb(0,9,36)" stroke="rgb(0,9,36)" stroke-width="1" opacity="1" d="M 33.5 32 L 158.5 32 L 160 33.5 L 160 46.5 L 158.5 47 Q 155.8 48.2 158 49.5 L 159 53 L 155.5 54 L 152.5 47 L 148.5 47 Q 147.4 49.8 144 49 L 143.5 51 L 143 49.5 L 143.5 48 L 138.5 49 L 134 48 Q 132.9 50.7 135.5 50 Q 138.5 51.5 135.5 53 L 135.5 51 L 131.5 53 L 131 51 Q 134.3 52.1 133 48 L 129.5 49 L 128.5 48 L 120 48 Q 121.3 51 117.5 50 L 116 50.5 L 119 48.5 L 115.5 48 Q 113.7 51.8 112 48.5 Q 112.8 45.9 109.5 47 L 108 49.5 L 109 53 L 99.5 59 L 96 58 Q 97.3 54.7 92.5 56 L 92.5 58 L 90 57 L 88 52.5 L 90.5 52 L 99.5 56 L 103 56 L 105 48.5 Q 104.3 46.3 100.5 47 L 97.5 51 Q 94.9 51.8 96 48.5 Q 94.8 45.7 93.5 48 L 88 50 L 86.5 47 L 84.5 48 L 83.5 47 L 72.5 47 L 71.5 48 Q 64 46.5 60.5 49 L 58.5 49 L 56 49 Q 57.3 52 53.5 51 L 51 55 L 40 56 L 40 66.5 L 38.5 68 L 39 66.5 L 37.5 63 L 34 65.5 Q 34.7 68.1 32 67 L 31 33 L 33.5 32 Z M 49 47 L 47 49 L 49 51 L 51 50 Q 53 51 52 49 L 49 47 Z " /><path fill="rgb(0,9,36)" stroke="rgb(0,9,36)" stroke-width="1" opacity="1" d="M 165 33 L 168 33.5 L 168 46.5 Q 171.5 48 169 49.5 L 169 143.5 Q 169 144.5 164.5 144 L 164.5 143 L 166 142.5 L 166 49 L 162 48.5 L 165 47 L 165 33 Z " /><path fill="rgb(0,9,36)" stroke="rgb(0,9,36)" stroke-width="1" opacity="1" d="M 24.5 47 Q 29.9 46.4 30 47.5 L 30 110.5 L 32 114.5 L 31 118 Q 35.5 116.3 34 121.5 L 31 123 Q 29.8 127.6 32.5 129 L 35 127.5 L 34 125.5 L 35.5 126 Q 37.8 125.3 37 127.5 Q 38.3 130.3 39.5 128 L 43.5 127 L 44 129 L 47 129 Q 45.9 131.7 48.5 131 L 56 133 Q 57.3 136 53.5 135 L 49.5 133 L 47 134 Q 45.5 137.8 48.5 137 Q 49.7 139.3 54.5 138 L 56.5 138 Q 61.3 136.7 60 140 L 47.5 140 L 47 141.5 L 48 144 L 63.5 144 Q 62.7 140.6 71.5 142 L 75.5 145 L 79.5 145 L 81 142.5 Q 75.4 138.6 64.5 140 L 63 140.5 L 64 138 L 69 137.5 Q 65.2 135.8 68.5 134 L 72 135.5 L 71 138 L 80 138 L 80 135 L 77 134.5 L 82.5 134 Q 85.8 135.8 82 137.5 L 82 144 L 88 144 L 89 135.5 L 91.5 132 L 96 132 Q 94.3 127.9 98.5 129 L 102 127.5 L 102.5 126 L 105 127.5 L 104.5 129 L 108.5 128 L 111 129 L 112.5 135 Q 113.5 131 119.5 132 L 128 133.5 L 120 134.5 L 128 135.5 L 119 137.5 L 119.5 139 L 117 135.5 L 120 133.5 L 115 133 L 115 136 L 111 136 L 111 137.5 L 115 139.5 L 112 140 L 111 142.5 Q 112.9 145.8 119 144 Q 117.7 140.7 122.5 142 L 124 145 L 128 145.5 L 128 160 L 81.5 160 L 80 161.5 L 79.5 163 L 48 163 L 46.5 160 L 33.5 160 L 32 158.5 L 32 129.5 L 30 129 L 30 143.5 L 27.5 144 L 26 142.5 L 26 128.5 L 28 126.5 L 28 113.5 L 24 112 L 23.5 144 L 22 49.5 L 24.5 47 Z M 24 48 L 24 80 L 27 80 L 28 79 L 28 49 L 24 48 Z M 94 139 Q 91 139 91 144 Q 92 146 96 145 Q 98 144 97 141 L 94 139 Z " /><path fill="rgb(0,9,36)" stroke="rgb(0,9,36)" stroke-width="1" opacity="1" d="M 73.5 50 L 78 50.5 L 71.5 53 L 67 51.5 L 73.5 50 Z " /><path fill="rgb(0,9,36)" stroke="rgb(0,9,36)" stroke-width="1" opacity="1" d="M 80.5 51 L 84 52.5 L 81.5 54 L 79 53.5 L 80.5 51 Z " /><path fill="rgb(0,9,36)" stroke="rgb(0,9,36)" stroke-width="1" opacity="1" d="M 118.5 51 L 117.5 53 L 111.5 56 L 112.5 54 L 118.5 51 Z " /><path fill="rgb(0,9,36)" stroke="rgb(0,9,36)" stroke-width="1" opacity="1" d="M 139.5 51 L 142 55 Q 139 56.3 140 52.5 L 139.5 51 Z " /><path fill="rgb(0,9,36)" stroke="rgb(0,9,36)" stroke-width="1" opacity="1" d="M 147.5 54 L 149.5 54 L 155 59.5 L 154 64 Q 150 65.4 152 58.5 L 151 58.5 L 150.5 61 L 150 59 L 147 58.5 L 151 58 Q 152.3 55 148.5 56 L 145.5 57 L 144.5 55 L 147.5 54 Z " /><path fill="rgb(0,9,36)" stroke="rgb(0,9,36)" stroke-width="1" opacity="1" d="M 108.5 56 L 107.5 58 L 108.5 56 Z " /><path fill="rgb(0,9,36)" stroke="rgb(0,9,36)" stroke-width="1" opacity="1" d="M 42.5 57 Q 45.5 58.5 42.5 60 Q 39.5 58.5 42.5 57 Z " /><path fill="rgb(0,9,36)" stroke="rgb(0,9,36)" stroke-width="1" opacity="1" d="M 93.5 59 L 95.5 62 Q 93.3 62.8 94 60.5 L 93.5 59 Z " /><path fill="rgb(0,9,36)" stroke="rgb(0,9,36)" stroke-width="1" opacity="1" d="M 158 59 Q 161 57.8 160 61.5 L 160.5 63 L 158 61.5 L 158 59 Z " /><path fill="rgb(0,9,36)" stroke="rgb(0,9,36)" stroke-width="1" opacity="1" d="M 99.5 62 L 103 62.5 L 99.5 63 L 99.5 62 Z " /><path fill="rgb(0,9,36)" stroke="rgb(0,9,36)" stroke-width="1" opacity="1" d="M 98.5 65 L 99 69.5 L 98 69.5 L 98.5 65 Z " /><path fill="rgb(0,9,36)" stroke="rgb(0,9,36)" stroke-width="1" opacity="1" d="M 154.5 66 L 161 66.5 L 157 67 L 159 72.5 L 158 75.5 L 159 78.5 L 158 78.5 L 156.5 75 L 155 75.5 L 156 68.5 L 154.5 66 Z " /><path fill="rgb(0,9,36)" stroke="rgb(0,9,36)" stroke-width="1" opacity="1" d="M 95.5 67 L 96 69.5 L 95 69.5 L 95.5 67 Z " /><path fill="rgb(0,9,36)" stroke="rgb(0,9,36)" stroke-width="1" opacity="1" d="M 36 69 Q 39.3 67.7 38 72.5 L 39 75.5 L 37.5 75 L 36 75 L 36 80 L 33.5 80 L 34 78.5 L 34 72.5 L 36 69 Z " /><path fill="rgb(0,9,36)" stroke="rgb(0,9,36)" stroke-width="1" opacity="1" d="M 128.5 69 L 131 70.5 L 129.5 70 L 128.5 69 Z " /><path fill="rgb(0,9,36)" stroke="rgb(0,9,36)" stroke-width="1" opacity="1" d="M 65.5 70 L 68 70.5 L 65.5 71 L 65.5 70 Z " /><path fill="rgb(0,9,36)" stroke="rgb(0,9,36)" stroke-width="1" opacity="1" d="M 127.5 71 L 128 73 L 132 74.5 L 134 77.5 L 129.5 78 L 131 75.5 L 129.5 74 L 126.5 75 L 124.5 74 L 122.5 78 L 122 74.5 L 127.5 71 Z " /><path fill="rgb(0,9,36)" stroke="rgb(0,9,36)" stroke-width="1" opacity="1" d="M 65 72 Q 71.5 70.8 74 74.5 L 71 76 Q 72.8 71.1 66.5 73 L 65 73.5 L 65 72 Z " /><path fill="rgb(0,9,36)" stroke="rgb(0,9,36)" stroke-width="1" opacity="1" d="M 60.5 73 L 61 75.5 L 59 74.5 L 60.5 73 Z " /><path fill="rgb(0,9,36)" stroke="rgb(0,9,36)" stroke-width="1" opacity="1" d="M 64.5 77 L 66 80 L 64 80 L 64 86 Q 67 85 66 88 Q 62.2 89.5 63 86.5 L 62 80 Q 65.1 81.1 64.5 77 Z " /><path fill="rgb(0,9,36)" stroke="rgb(0,9,36)" stroke-width="1" opacity="1" d="M 73.5 78 L 77 79.5 L 75.5 80 L 73.5 79 L 72 79.5 L 73.5 78 Z " /><path fill="rgb(0,9,36)" stroke="rgb(0,9,36)" stroke-width="1" opacity="1" d="M 100.5 78 L 101 80 L 99 79.5 L 100.5 78 Z " /><path fill="rgb(0,9,36)" stroke="rgb(0,9,36)" stroke-width="1" opacity="1" d="M 126 78 Q 128.7 76.9 128 79.5 L 128.5 81 L 126.5 80 L 124.5 81 L 124.5 80 Q 127.1 80.7 126 78 Z " /><path fill="rgb(0,9,36)" stroke="rgb(0,9,36)" stroke-width="1" opacity="1" d="M 160.5 78 L 161 79.5 L 159 83 L 155.5 84 L 153 80 L 151 79.5 L 152.5 79 L 153.5 80 L 160 80 L 160.5 78 Z " /><path fill="rgb(0,9,36)" stroke="rgb(0,9,36)" stroke-width="1" opacity="1" d="M 57.5 80 L 60 81 Q 61.5 85.5 57 84 L 57.5 80 Z " /><path fill="rgb(0,9,36)" stroke="rgb(0,9,36)" stroke-width="1" opacity="1" d="M 67.5 80 L 72 81.5 L 66 83 L 67.5 80 Z " /><path fill="rgb(0,9,36)" stroke="rgb(0,9,36)" stroke-width="1" opacity="1" d="M 97.5 80 L 98.5 82 L 100.5 81 L 99 83.5 L 100.5 87 L 104 89.5 L 100 96 Q 96.7 97.3 98 92.5 L 101 88.5 L 97 85.5 L 98 82 L 96 81.5 L 97.5 80 Z " /><path fill="rgb(0,9,36)" stroke="rgb(0,9,36)" stroke-width="1" opacity="1" d="M 135.5 80 L 138.5 81 L 141 80 L 139.5 83 Q 135.1 84.5 136 81.5 L 135.5 80 Z " /><path fill="rgb(0,9,36)" stroke="rgb(0,9,36)" stroke-width="1" opacity="1" d="M 80.5 81 L 83 81.5 L 80.5 82 L 80.5 81 Z " /><path fill="rgb(0,9,36)" stroke="rgb(0,9,36)" stroke-width="1" opacity="1" d="M 133.5 81 L 134 83.5 L 133.5 85 L 131 83.5 L 133.5 81 Z " /><path fill="rgb(0,9,36)" stroke="rgb(0,9,36)" stroke-width="1" opacity="1" d="M 147.5 83 L 151 84.5 L 148.5 85 L 147.5 83 Z " /><path fill="rgb(0,9,36)" stroke="rgb(0,9,36)" stroke-width="1" opacity="1" d="M 31 84 Q 34.3 82.7 33 87.5 Q 35.2 88.8 34 93.5 L 32 93.5 L 33 96.5 L 31 97 L 31 84 Z " /><path fill="rgb(0,9,36)" stroke="rgb(0,9,36)" stroke-width="1" opacity="1" d="M 69.5 84 L 94.5 85 L 97 87.5 L 95 88.5 Q 97.3 87.3 94.5 86 L 90.5 89 L 88.5 88 L 87.5 89 L 72.5 89 L 69 87.5 L 69.5 86 L 68 85.5 L 69.5 84 Z M 73 85 L 71 87 L 73 88 L 88 88 L 87 86 Q 81 85 80 87 L 73 85 Z " /><path fill="rgb(0,9,36)" stroke="rgb(0,9,36)" stroke-width="1" opacity="1" d="M 140.5 84 L 143 85.5 L 141.5 86 L 140.5 84 Z " /><path fill="rgb(0,9,36)" stroke="rgb(0,9,36)" stroke-width="1" opacity="1" d="M 56.5 85 L 57 88.5 L 56 88.5 L 56.5 85 Z " /><path fill="rgb(0,9,36)" stroke="rgb(0,9,36)" stroke-width="1" opacity="1" d="M 147.5 86 L 149.5 86 L 157 92 L 158.5 89 L 161 89.5 L 160 94 L 154 93 L 152.5 97 L 149.5 91 L 148 91.5 Q 147.3 89.3 149.5 90 L 151.5 93 L 152 89.5 L 148.5 88 Q 146.3 92.3 144 87.5 L 147.5 86 Z " /><path fill="rgb(0,9,36)" stroke="rgb(0,9,36)" stroke-width="1" opacity="1" d="M 59.5 88 L 60 101.5 L 58 100.5 Q 56.1 91.6 59.5 88 Z " /><path fill="rgb(0,9,36)" stroke="rgb(0,9,36)" stroke-width="1" opacity="1" d="M 107.5 94 L 109 94.5 L 107 95.5 L 108.5 98 Q 103.1 99.9 104 96.5 L 107.5 94 Z " /><path fill="rgb(0,9,36)" stroke="rgb(0,9,36)" stroke-width="1" opacity="1" d="M 156.5 96 Q 162.8 94.1 161 99 L 158 99.5 L 158.5 101 Q 155.9 100.2 157 103.5 L 156 103.5 Q 156.5 99 153 98.5 L 157 100.5 L 156.5 96 Z " /><path fill="rgb(0,9,36)" stroke="rgb(0,9,36)" stroke-width="1" opacity="1" d="M 31 99 Q 33.7 97.9 33 100.5 L 31.5 103 L 31 99 Z " /><path fill="rgb(0,9,36)" stroke="rgb(0,9,36)" stroke-width="1" opacity="1" d="M 117.5 99 L 120 99.5 L 117.5 100 L 117.5 99 Z " /><path fill="rgb(0,9,36)" stroke="rgb(0,9,36)" stroke-width="1" opacity="1" d="M 105.5 100 L 110.5 101 L 112.5 100 L 112 101.5 L 112 105 L 105.5 105 L 101.5 104 L 100 104.5 L 99.5 103 L 97.5 104 L 97.5 103 L 102.5 101 Q 103.8 105.3 110.5 104 L 110.5 103 Q 104.8 102.5 105.5 100 Z " /><path fill="rgb(0,9,36)" stroke="rgb(0,9,36)" stroke-width="1" opacity="1" d="M 62 101 Q 65.3 99.7 64 104.5 L 65.5 106 L 80 106.5 Q 78.4 112 72 111 Q 73.1 108.3 70.5 109 L 63.5 107 L 63 108.5 L 64 110.5 Q 62.5 113.5 61 110.5 L 63 110.5 L 61 107.5 L 63 106.5 L 62 103.5 L 62 101 Z " /><path fill="rgb(0,9,36)" stroke="rgb(0,9,36)" stroke-width="1" opacity="1" d="M 114.5 101 Q 117.1 100.3 116 103 L 113 102.5 L 114.5 101 Z " /><path fill="rgb(0,9,36)" stroke="rgb(0,9,36)" stroke-width="1" opacity="1" d="M 117.5 103 L 119 103.5 L 115.5 105 L 115.5 104 L 117.5 103 Z " /><path fill="rgb(0,9,36)" stroke="rgb(0,9,36)" stroke-width="1" opacity="1" d="M 126.5 103 L 132 107.5 L 130 108 L 128.5 105 L 127 105.5 L 128 109 L 124 110.5 L 123.5 112 L 118 111 L 118.5 109 L 120 109.5 L 121.5 106 L 122 108 Q 127.2 110.1 126 105.5 L 126.5 103 Z " /><path fill="rgb(0,9,36)" stroke="rgb(0,9,36)" stroke-width="1" opacity="1" d="M 159.5 103 L 161 107.5 L 159.5 110 L 158 104.5 L 159.5 103 Z " /><path fill="rgb(0,9,36)" stroke="rgb(0,9,36)" stroke-width="1" opacity="1" d="M 134.5 105 L 135.5 107 L 134.5 105 Z " /><path fill="rgb(0,9,36)" stroke="rgb(0,9,36)" stroke-width="1" opacity="1" d="M 35.5 106 L 37 113.5 L 36 114.5 L 39.5 118 L 41 118.5 L 40 121.5 L 42 125 L 38 122.5 L 39 120.5 L 38 118 L 35.5 119 L 36 117.5 Q 33.3 113.6 35.5 106 Z " /><path fill="rgb(0,9,36)" stroke="rgb(0,9,36)" stroke-width="1" opacity="1" d="M 117.5 106 L 116.5 108 L 117.5 106 Z " /><path fill="rgb(0,9,36)" stroke="rgb(0,9,36)" stroke-width="1" opacity="1" d="M 68 110 Q 70.7 108.9 70 111.5 L 70.5 113 L 68 111.5 L 68 110 Z " /><path fill="rgb(0,9,36)" stroke="rgb(0,9,36)" stroke-width="1" opacity="1" d="M 157.5 110 L 159 118.5 L 158 118.5 Q 155.7 115.6 157.5 110 Z " /><path fill="rgb(0,9,36)" stroke="rgb(0,9,36)" stroke-width="1" opacity="1" d="M 125.5 111 L 128 111.5 L 125.5 112 L 125.5 111 Z " /><path fill="rgb(0,9,36)" stroke="rgb(0,9,36)" stroke-width="1" opacity="1" d="M 130.5 111 L 134 111.5 L 132 112.5 L 133 114.5 L 131.5 114 L 130 113.5 L 130.5 111 Z " /><path fill="rgb(0,9,36)" stroke="rgb(0,9,36)" stroke-width="1" opacity="1" d="M 160.5 114 L 161 116.5 L 160 116.5 L 160.5 114 Z " /><path fill="rgb(0,9,36)" stroke="rgb(0,9,36)" stroke-width="1" opacity="1" d="M 98.5 115 L 99.5 117 L 98.5 115 Z " /><path fill="rgb(0,9,36)" stroke="rgb(0,9,36)" stroke-width="1" opacity="1" d="M 155.5 116 L 156 120 Q 158.7 118.9 158 121.5 Q 160.8 123.3 156.5 125 L 156 120 Q 153.3 121.1 154 118.5 L 155.5 116 Z " /><path fill="rgb(0,9,36)" stroke="rgb(0,9,36)" stroke-width="1" opacity="1" d="M 42.5 119 L 41.5 121 L 42.5 119 Z " /><path fill="rgb(0,9,36)" stroke="rgb(0,9,36)" stroke-width="1" opacity="1" d="M 101.5 120 L 102.5 122 L 101.5 120 Z " /><path fill="rgb(0,9,36)" stroke="rgb(0,9,36)" stroke-width="1" opacity="1" d="M 95 121 L 99 121 L 99 122.5 L 100 126 Q 95.8 125 94.5 128 L 96 125.5 L 95 122.5 L 95 121 Z " /><path fill="rgb(0,9,36)" stroke="rgb(0,9,36)" stroke-width="1" opacity="1" d="M 151.5 124 L 149.5 127 L 151.5 124 Z " /><path fill="rgb(0,9,36)" stroke="rgb(0,9,36)" stroke-width="1" opacity="1" d="M 91.5 125 L 91 126.5 L 90.5 128 L 90 126.5 L 91.5 125 Z " /><path fill="rgb(0,9,36)" stroke="rgb(0,9,36)" stroke-width="1" opacity="1" d="M 152 126 L 156 127.5 L 156.5 129 L 158.5 128 L 160 129.5 L 160 144 L 144.5 144 L 144 141.5 L 142.5 139 L 145 137.5 L 143.5 134 Q 142.3 136.3 141 133.5 L 141.5 131 Q 143.2 134.8 145 131.5 L 145 129 L 150.5 129 L 152 126 Z " /><path fill="rgb(0,9,36)" stroke="rgb(0,9,36)" stroke-width="1" opacity="1" d="M 85.5 129 L 87 129.5 L 85 130 L 84.5 132 L 84 130.5 L 85.5 129 Z " /><path fill="rgb(0,9,36)" stroke="rgb(0,9,36)" stroke-width="1" opacity="1" d="M 86.5 132 L 87.5 134 L 85.5 135 L 85 133.5 L 86.5 132 Z " /><path fill="rgb(0,9,36)" stroke="rgb(0,9,36)" stroke-width="1" opacity="1" d="M 137.5 132 L 140 132.5 L 135.5 134 L 135.5 133 L 137.5 132 Z " /><path fill="rgb(0,9,36)" stroke="rgb(0,9,36)" stroke-width="1" opacity="1" d="M 61.5 133 L 64 133.5 L 61.5 134 L 61.5 133 Z " /><path fill="rgb(0,9,36)" stroke="rgb(0,9,36)" stroke-width="1" opacity="1" d="M 74 133 L 76 133.5 L 74.5 136 L 74 133 Z " /><path fill="rgb(0,9,36)" stroke="rgb(0,9,36)" stroke-width="1" opacity="1" d="M 131.5 133 L 134 133.5 L 131.5 134 L 131.5 133 Z " /><path fill="rgb(0,9,36)" stroke="rgb(0,9,36)" stroke-width="1" opacity="1" d="M 59.5 134 L 64 136.5 L 58 137 L 59.5 134 Z " /><path fill="rgb(0,9,36)" stroke="rgb(0,9,36)" stroke-width="1" opacity="1" d="M 128.5 140 L 131 140.5 L 128.5 141 L 128.5 140 Z " /><path fill="rgb(0,9,36)" stroke="rgb(0,9,36)" stroke-width="1" opacity="1" d="M 131.5 142 L 136.5 142 Q 135.5 145 140.5 144 L 140.5 145 Q 133 146.5 130 143.5 L 131.5 142 Z " /><path fill="rgb(0,9,36)" stroke="rgb(0,9,36)" stroke-width="1" opacity="1" d="M 33.5 163 L 40 163.5 L 33.5 164 L 33.5 163 Z " /><path fill="rgb(0,9,36)" stroke="rgb(0,9,36)" stroke-width="1" opacity="1" d="M 152.5 163 L 159 163.5 L 152.5 164 L 152.5 163 Z " /><path fill="rgb(1,4,19)" stroke="rgb(1,4,19)" stroke-width="1" opacity="1" d="M 0 0 L 192 0 L 192 192 L 0 192 L 0 0 Z M 32 15 L 31 16 Q 23 15 24 18 Q 27 17 29 20 Q 33 19 31 24 L 24 31 L 20 31 Q 21 28 18 27 Q 19 23 16 24 L 16 31 L 15 32 L 15 48 L 16 49 L 15 160 L 17 161 L 24 161 L 25 164 L 27 161 L 27 165 L 31 166 L 29 167 L 29 168 L 31 169 L 31 176 L 33 177 L 48 177 L 49 173 L 50 171 L 79 171 L 80 176 L 82 177 L 160 177 L 161 176 L 161 168 L 164 168 L 161 166 L 165 165 L 166 161 L 168 164 L 168 161 L 176 161 L 177 160 L 177 49 L 175 40 Q 173 33 176 32 L 176 25 L 174 24 Q 175 27 172 29 Q 173 33 169 31 L 161 24 L 161 20 Q 164 21 166 18 Q 169 19 168 16 L 162 16 L 161 15 L 145 15 L 144 16 L 49 16 L 48 15 L 32 15 Z M 24 24 L 24 26 L 26 25 L 24 24 Z M 167 24 L 168 26 Q 169 23 167 24 Z " /><path fill="rgb(2,14,34)" stroke="rgb(2,14,34)" stroke-width="1" opacity="1" d="M 72.5 48 L 74 48.5 Q 71.3 51.3 64.5 50 L 64.5 49 Q 70.8 50.8 72.5 48 Z " /><path fill="rgb(2,14,34)" stroke="rgb(2,14,34)" stroke-width="1" opacity="1" d="M 136.5 48 L 138 48.5 L 134.5 50 L 134.5 49 L 136.5 48 Z " /><path fill="rgb(2,14,34)" stroke="rgb(2,14,34)" stroke-width="1" opacity="1" d="M 114 49 L 117 49.5 L 114 51 L 114 49 Z " /><path fill="rgb(2,14,34)" stroke="rgb(2,14,34)" stroke-width="1" opacity="1" d="M 56.5 50 L 59 50.5 L 56.5 51 L 56.5 50 Z " /><path fill="rgb(2,14,34)" stroke="rgb(2,14,34)" stroke-width="1" opacity="1" d="M 78.5 50 Q 84.3 48.3 83 52 L 78.5 51 L 78.5 50 Z " /><path fill="rgb(2,14,34)" stroke="rgb(2,14,34)" stroke-width="1" opacity="1" d="M 119.5 51 L 123 52.5 L 118.5 53 L 119.5 51 Z " /><path fill="rgb(2,14,34)" stroke="rgb(2,14,34)" stroke-width="1" opacity="1" d="M 137.5 51 L 140 52.5 L 138.5 53 L 137.5 51 Z " /><path fill="rgb(2,14,34)" stroke="rgb(2,14,34)" stroke-width="1" opacity="1" d="M 61.5 52 L 64 52.5 L 61.5 53 L 61.5 52 Z " /><path fill="rgb(2,14,34)" stroke="rgb(2,14,34)" stroke-width="1" opacity="1" d="M 66.5 52 L 71 52.5 L 66.5 53 L 66.5 52 Z " /><path fill="rgb(2,14,34)" stroke="rgb(2,14,34)" stroke-width="1" opacity="1" d="M 72.5 52 L 75 52.5 L 72.5 53 L 72.5 52 Z " /><path fill="rgb(2,14,34)" stroke="rgb(2,14,34)" stroke-width="1" opacity="1" d="M 132.5 52 L 135 52.5 L 132.5 53 L 132.5 52 Z " /><path fill="rgb(2,14,34)" stroke="rgb(2,14,34)" stroke-width="1" opacity="1" d="M 56.5 53 Q 58.8 52.3 58 54.5 L 56.5 53 Z " /><path fill="rgb(2,14,34)" stroke="rgb(2,14,34)" stroke-width="1" opacity="1" d="M 114.5 54 L 116 54.5 L 112.5 56 L 112.5 55 L 114.5 54 Z " /><path fill="rgb(2,14,34)" stroke="rgb(2,14,34)" stroke-width="1" opacity="1" d="M 92.5 56 L 94.5 57 L 96 56.5 L 94.5 60 L 92.5 56 Z " /><path fill="rgb(2,14,34)" stroke="rgb(2,14,34)" stroke-width="1" opacity="1" d="M 109.5 56 L 110.5 58 L 109.5 56 Z " /><path fill="rgb(2,14,34)" stroke="rgb(2,14,34)" stroke-width="1" opacity="1" d="M 143.5 56 Q 145.8 55.3 145 57.5 L 143.5 56 Z " /><path fill="rgb(2,14,34)" stroke="rgb(2,14,34)" stroke-width="1" opacity="1" d="M 43.5 57 Q 49.6 55.8 49 58.5 L 47.5 58 Q 43 57 42 59.5 L 43 64.5 L 41 63.5 Q 40 58 43.5 57 Z " /><path fill="rgb(2,14,34)" stroke="rgb(2,14,34)" stroke-width="1" opacity="1" d="M 106.5 58 L 108 58.5 L 105 60.5 L 106.5 58 Z " /><path fill="rgb(2,14,34)" stroke="rgb(2,14,34)" stroke-width="1" opacity="1" d="M 44 60 L 46 60.5 L 44 61.5 L 44 60 Z " /><path fill="rgb(2,14,34)" stroke="rgb(2,14,34)" stroke-width="1" opacity="1" d="M 91.5 60 L 95 66.5 L 93 67 L 91 62.5 L 91.5 60 Z " /><path fill="rgb(2,14,34)" stroke="rgb(2,14,34)" stroke-width="1" opacity="1" d="M 104.5 62 L 103 64.5 L 102.5 67 L 102 64.5 L 104.5 62 Z " /><path fill="rgb(2,14,34)" stroke="rgb(2,14,34)" stroke-width="1" opacity="1" d="M 150.5 62 L 152 64.5 L 151 64.5 L 150.5 62 Z " /><path fill="rgb(2,14,34)" stroke="rgb(2,14,34)" stroke-width="1" opacity="1" d="M 97 64 L 99 64.5 Q 96.3 65.8 96.5 70 L 96 66.5 L 97 64 Z " /><path fill="rgb(2,14,34)" stroke="rgb(2,14,34)" stroke-width="1" opacity="1" d="M 41.5 66 L 42 67.5 L 40.5 70 L 40 68.5 L 41.5 66 Z " /><path fill="rgb(2,14,34)" stroke="rgb(2,14,34)" stroke-width="1" opacity="1" d="M 100 68 Q 102.7 66.9 102 69.5 L 100.5 78 L 100 68 Z " /><path fill="rgb(2,14,34)" stroke="rgb(2,14,34)" stroke-width="1" opacity="1" d="M 157 68 Q 160 67 159 70 Q 156 71 157 68 Z " /><path fill="rgb(2,14,34)" stroke="rgb(2,14,34)" stroke-width="1" opacity="1" d="M 124.5 69 L 130 70.5 L 128.5 71 L 124.5 70 L 124.5 69 Z " /><path fill="rgb(2,14,34)" stroke="rgb(2,14,34)" stroke-width="1" opacity="1" d="M 153.5 69 L 154 73.5 L 153 73.5 L 153.5 69 Z " /><path fill="rgb(2,14,34)" stroke="rgb(2,14,34)" stroke-width="1" opacity="1" d="M 61.5 71 L 63 71.5 L 59.5 74 L 61.5 71 Z " /><path fill="rgb(2,14,34)" stroke="rgb(2,14,34)" stroke-width="1" opacity="1" d="M 74.5 71 Q 77.5 71.5 77 75.5 L 76 75.5 L 74.5 71 Z " /><path fill="rgb(2,14,34)" stroke="rgb(2,14,34)" stroke-width="1" opacity="1" d="M 133.5 71 L 136 72.5 L 134.5 72 L 133.5 71 Z " /><path fill="rgb(2,14,34)" stroke="rgb(2,14,34)" stroke-width="1" opacity="1" d="M 96.5 72 Q 98.9 74.1 98 79.5 L 94.5 81 L 94.5 80 L 97 78.5 L 96.5 72 Z " /><path fill="rgb(2,14,34)" stroke="rgb(2,14,34)" stroke-width="1" opacity="1" d="M 157.5 72 L 159 75.5 L 158 75.5 L 157.5 72 Z " /><path fill="rgb(2,14,34)" stroke="rgb(2,14,34)" stroke-width="1" opacity="1" d="M 66.5 73 Q 72.3 70.9 71 75.5 L 72 77.5 L 67.5 74 L 66.5 73 Z " /><path fill="rgb(2,14,34)" stroke="rgb(2,14,34)" stroke-width="1" opacity="1" d="M 124.5 74 L 125 75.5 L 123 76.5 L 124.5 74 Z " /><path fill="rgb(2,14,34)" stroke="rgb(2,14,34)" stroke-width="1" opacity="1" d="M 129.5 74 L 130.5 76 Q 127.7 76.7 129.5 74 Z " /><path fill="rgb(2,14,34)" stroke="rgb(2,14,34)" stroke-width="1" opacity="1" d="M 73.5 75 L 75 77.5 L 73 78 L 73.5 75 Z " /><path fill="rgb(2,14,34)" stroke="rgb(2,14,34)" stroke-width="1" opacity="1" d="M 136.5 75 L 137 77.5 L 136 77.5 L 136.5 75 Z " /><path fill="rgb(2,14,34)" stroke="rgb(2,14,34)" stroke-width="1" opacity="1" d="M 154.5 75 L 155.5 77 L 152.5 79 L 154 76.5 L 154.5 75 Z " /><path fill="rgb(2,14,34)" stroke="rgb(2,14,34)" stroke-width="1" opacity="1" d="M 62 76 Q 65 74.8 64 78.5 L 62 79.5 L 62 76 Z " /><path fill="rgb(2,14,34)" stroke="rgb(2,14,34)" stroke-width="1" opacity="1" d="M 38.5 77 L 39 79.5 L 37.5 82 L 37 80.5 L 38.5 77 Z " /><path fill="rgb(2,14,34)" stroke="rgb(2,14,34)" stroke-width="1" opacity="1" d="M 79.5 78 L 80 80 L 82 80.5 L 80.5 81 L 79.5 78 Z " /><path fill="rgb(2,14,34)" stroke="rgb(2,14,34)" stroke-width="1" opacity="1" d="M 141.5 79 L 146 79.5 L 141.5 80 L 141.5 79 Z " /><path fill="rgb(2,14,34)" stroke="rgb(2,14,34)" stroke-width="1" opacity="1" d="M 34.5 80 L 35 84.5 L 34 84.5 L 34.5 80 Z " /><path fill="rgb(2,14,34)" stroke="rgb(2,14,34)" stroke-width="1" opacity="1" d="M 56.5 80 L 57 84.5 L 56 84.5 L 56.5 80 Z " /><path fill="rgb(2,14,34)" stroke="rgb(2,14,34)" stroke-width="1" opacity="1" d="M 126.5 81 L 132 82.5 L 128 84 Q 129.1 81.3 126.5 82 L 125 82.5 L 126.5 81 Z " /><path fill="rgb(2,14,34)" stroke="rgb(2,14,34)" stroke-width="1" opacity="1" d="M 97.5 82 L 98 84.5 L 97 84.5 L 97.5 82 Z " /><path fill="rgb(2,14,34)" stroke="rgb(2,14,34)" stroke-width="1" opacity="1" d="M 36.5 85 Q 39.1 88.5 38 95.5 L 37 95.5 L 36.5 88 L 35 103.5 L 36 106 L 34 105.5 L 34 96.5 L 36.5 85 Z " /><path fill="rgb(2,14,34)" stroke="rgb(2,14,34)" stroke-width="1" opacity="1" d="M 102 86 Q 105 85 104 88 Q 101 89 102 86 Z " /><path fill="rgb(2,14,34)" stroke="rgb(2,14,34)" stroke-width="1" opacity="1" d="M 55.5 88 L 56 90.5 L 55 90.5 L 55.5 88 Z " /><path fill="rgb(2,14,34)" stroke="rgb(2,14,34)" stroke-width="1" opacity="1" d="M 77.5 89 L 80 89.5 L 77.5 90 L 77.5 89 Z " /><path fill="rgb(2,14,34)" stroke="rgb(2,14,34)" stroke-width="1" opacity="1" d="M 66.5 92 L 67 101.5 L 64.5 103 L 66 100.5 L 66.5 92 Z " /><path fill="rgb(2,14,34)" stroke="rgb(2,14,34)" stroke-width="1" opacity="1" d="M 107.5 92 L 108.5 94 Q 105.7 94.7 107.5 92 Z " /><path fill="rgb(2,14,34)" stroke="rgb(2,14,34)" stroke-width="1" opacity="1" d="M 114.5 96 L 117 99.5 L 116 99.5 L 114.5 96 Z " /><path fill="rgb(2,14,34)" stroke="rgb(2,14,34)" stroke-width="1" opacity="1" d="M 37.5 98 L 38 102.5 L 37 102.5 L 36 99.5 L 37.5 98 Z " /><path fill="rgb(2,14,34)" stroke="rgb(2,14,34)" stroke-width="1" opacity="1" d="M 120 99 Q 123 98 122 101 Q 119 102 120 99 Z " /><path fill="rgb(2,14,34)" stroke="rgb(2,14,34)" stroke-width="1" opacity="1" d="M 32.5 101 L 33 103.5 L 32 103.5 L 32.5 101 Z " /><path fill="rgb(2,14,34)" stroke="rgb(2,14,34)" stroke-width="1" opacity="1" d="M 127.5 101 L 132 103.5 L 130.5 104 L 127.5 101 Z " /><path fill="rgb(2,14,34)" stroke="rgb(2,14,34)" stroke-width="1" opacity="1" d="M 155.5 101 L 156 108.5 L 155 108.5 L 155.5 101 Z " /><path fill="rgb(2,14,34)" stroke="rgb(2,14,34)" stroke-width="1" opacity="1" d="M 116.5 102 L 120 102.5 L 116.5 103 L 116.5 102 Z " /><path fill="rgb(2,14,34)" stroke="rgb(2,14,34)" stroke-width="1" opacity="1" d="M 112 103 L 115 104.5 L 112 105 L 112 103 Z " /><path fill="rgb(2,14,34)" stroke="rgb(2,14,34)" stroke-width="1" opacity="1" d="M 101 104 Q 104.8 103 106 105.5 L 104.5 105 L 101.5 106 L 101 104 Z " /><path fill="rgb(2,14,34)" stroke="rgb(2,14,34)" stroke-width="1" opacity="1" d="M 126.5 104 L 130 106.5 Q 130.7 109.1 128 108 L 126.5 104 Z " /><path fill="rgb(2,14,34)" stroke="rgb(2,14,34)" stroke-width="1" opacity="1" d="M 134.5 104 L 135.5 106 L 134.5 104 Z " /><path fill="rgb(2,14,34)" stroke="rgb(2,14,34)" stroke-width="1" opacity="1" d="M 38.5 105 L 39 107.5 L 38 107.5 L 38.5 105 Z " /><path fill="rgb(2,14,34)" stroke="rgb(2,14,34)" stroke-width="1" opacity="1" d="M 63.5 105 L 62.5 107 L 61 106.5 L 63.5 105 Z " /><path fill="rgb(2,14,34)" stroke="rgb(2,14,34)" stroke-width="1" opacity="1" d="M 57 107 L 60 108.5 L 59.5 111 L 59 109 Q 56 110 57 107 Z " /><path fill="rgb(2,14,34)" stroke="rgb(2,14,34)" stroke-width="1" opacity="1" d="M 99.5 107 L 98.5 109 L 97 108.5 L 99.5 107 Z " /><path fill="rgb(2,14,34)" stroke="rgb(2,14,34)" stroke-width="1" opacity="1" d="M 136.5 107 L 137 112.5 L 136 112.5 L 136.5 107 Z " /><path fill="rgb(2,14,34)" stroke="rgb(2,14,34)" stroke-width="1" opacity="1" d="M 96.5 110 L 99 110.5 L 96.5 111 L 96.5 110 Z " /><path fill="rgb(2,14,34)" stroke="rgb(2,14,34)" stroke-width="1" opacity="1" d="M 96.5 112 L 98 119.5 L 97 119.5 L 96.5 112 Z " /><path fill="rgb(2,14,34)" stroke="rgb(2,14,34)" stroke-width="1" opacity="1" d="M 98.5 112 L 100 115.5 L 98 114.5 L 98.5 112 Z " /><path fill="rgb(2,14,34)" stroke="rgb(2,14,34)" stroke-width="1" opacity="1" d="M 126.5 112 L 131 112.5 L 124.5 114 L 124.5 113 L 126.5 112 Z " /><path fill="rgb(2,14,34)" stroke="rgb(2,14,34)" stroke-width="1" opacity="1" d="M 155.5 112 L 156 115.5 L 155 115.5 L 155.5 112 Z " /><path fill="rgb(2,14,34)" stroke="rgb(2,14,34)" stroke-width="1" opacity="1" d="M 75.5 113 L 78 113.5 L 72.5 117 L 72 115.5 L 75.5 113 Z " /><path fill="rgb(2,14,34)" stroke="rgb(2,14,34)" stroke-width="1" opacity="1" d="M 130 114 L 132 114.5 L 130 115.5 L 130 114 Z " /><path fill="rgb(2,14,34)" stroke="rgb(2,14,34)" stroke-width="1" opacity="1" d="M 64.5 115 L 65.5 117 L 64.5 115 Z " /><path fill="rgb(2,14,34)" stroke="rgb(2,14,34)" stroke-width="1" opacity="1" d="M 40.5 116 L 42 120 L 44 120.5 L 42.5 121 Q 38.8 119.2 40.5 116 Z " /><path fill="rgb(2,14,34)" stroke="rgb(2,14,34)" stroke-width="1" opacity="1" d="M 100.5 117 L 103 120.5 L 101.5 120 Q 98.4 120.7 100.5 117 Z " /><path fill="rgb(2,14,34)" stroke="rgb(2,14,34)" stroke-width="1" opacity="1" d="M 153.5 118 L 154 119.5 L 152 120.5 L 153.5 118 Z " /><path fill="rgb(2,14,34)" stroke="rgb(2,14,34)" stroke-width="1" opacity="1" d="M 93 121 Q 95.7 119.9 95 122.5 L 92 124.5 L 93 121 Z " /><path fill="rgb(2,14,34)" stroke="rgb(2,14,34)" stroke-width="1" opacity="1" d="M 45.5 122 L 46.5 124 L 45.5 122 Z " /><path fill="rgb(2,14,34)" stroke="rgb(2,14,34)" stroke-width="1" opacity="1" d="M 104.5 124 L 107 125.5 L 105.5 126 L 104.5 124 Z " /><path fill="rgb(2,14,34)" stroke="rgb(2,14,34)" stroke-width="1" opacity="1" d="M 42.5 126 L 43 128 L 41 127.5 L 42.5 126 Z " /><path fill="rgb(2,14,34)" stroke="rgb(2,14,34)" stroke-width="1" opacity="1" d="M 86.5 127 L 88 127.5 L 85.5 129 L 86.5 127 Z " /><path fill="rgb(2,14,34)" stroke="rgb(2,14,34)" stroke-width="1" opacity="1" d="M 51.5 128 L 58 131.5 L 56 132.5 Q 56.8 130.3 54.5 131 L 51.5 128 Z " /><path fill="rgb(2,14,34)" stroke="rgb(2,14,34)" stroke-width="1" opacity="1" d="M 82.5 129 L 84 132 L 78.5 133 L 77.5 131 L 79.5 132 L 82 131 L 82.5 129 Z " /><path fill="rgb(2,14,34)" stroke="rgb(2,14,34)" stroke-width="1" opacity="1" d="M 112.5 130 L 118 131.5 L 114.5 132 L 112.5 130 Z " /><path fill="rgb(2,14,34)" stroke="rgb(2,14,34)" stroke-width="1" opacity="1" d="M 63.5 132 Q 64.8 134.2 69.5 133 L 72.5 132 L 74 132.5 Q 71.3 135.3 64.5 134 L 63.5 132 Z " /><path fill="rgb(2,14,34)" stroke="rgb(2,14,34)" stroke-width="1" opacity="1" d="M 56.5 134 L 59 134.5 L 56.5 135 L 56.5 134 Z " /><path fill="rgb(2,14,34)" stroke="rgb(2,14,34)" stroke-width="1" opacity="1" d="M 83.5 134 L 85 134.5 L 82.5 136 L 83.5 134 Z " /><path fill="rgb(2,14,34)" stroke="rgb(2,14,34)" stroke-width="1" opacity="1" d="M 115 134 L 118 134.5 L 115 136 L 115 134 Z " /><path fill="rgb(2,14,34)" stroke="rgb(2,14,34)" stroke-width="1" opacity="1" d="M 61.5 138 L 64 138.5 Q 61.9 141.8 61.5 138 Z " /><path fill="rgb(2,14,34)" stroke="rgb(2,14,34)" stroke-width="1" opacity="1" d="M 125.5 138 L 128 138.5 L 125.5 139 L 125.5 138 Z " /><path fill="rgb(0,6,28)" stroke="rgb(0,6,28)" stroke-width="1" opacity="1" d="M 48.5 19 L 95.5 20 L 96.5 19 L 144 19 L 144.5 21 L 158.5 21 L 159.5 23 L 145.5 23 L 143.5 21 L 95.5 21 L 94.5 22 L 65.5 22 L 64.5 21 L 48.5 21 L 47.5 22 L 40 22 L 39.5 24 L 32 24 L 32 26.5 L 28 29.5 Q 29.3 33.7 24.5 32 L 23 33.5 L 22 46.5 L 20 48.5 L 20 79.5 L 21 80.5 L 21 112.5 L 20 113.5 L 20 126.5 L 21 127.5 L 21 147.5 L 24 154 L 20 152 L 20 144.5 L 19 143.5 L 19 48.5 L 20 47.5 L 20 33.5 L 21.5 32 L 25 29.5 Q 22.7 28.3 25.5 27 Q 26.8 29.3 28 26.5 Q 25.8 25.3 28.5 24 L 30.5 24 L 32 24 L 32.5 21 L 46.5 21 L 48.5 19 Z " /><path fill="rgb(0,6,28)" stroke="rgb(0,6,28)" stroke-width="1" opacity="1" d="M 160 24 L 162.5 25 Q 163.8 22.7 165 25.5 Q 162.8 26.8 165.5 28 Q 166.8 25.8 168 28.5 Q 165.3 30.2 169.5 32 L 172 33.5 L 172 47.5 L 173 48.5 L 173 143.5 L 172 144.5 L 172 152 L 168 154 Q 166.9 151.3 169.5 152 L 171 150.5 Q 169.2 144.2 172 142.5 L 172 48.5 L 170 46.5 L 169 33.5 L 167.5 32 L 165.5 31 L 164 31.5 L 162.5 28 L 160 26.5 L 160 24 Z " /><path fill="rgb(0,6,28)" stroke="rgb(0,6,28)" stroke-width="1" opacity="1" d="M 110.5 48 L 113 49 L 112.5 51 L 110 50 L 110.5 48 Z " /><path fill="rgb(0,6,28)" stroke="rgb(0,6,28)" stroke-width="1" opacity="1" d="M 134.5 51 L 140 54.5 L 138.5 54 L 136 54 Q 137.1 51.3 134.5 52 L 134.5 51 Z " /><path fill="rgb(0,6,28)" stroke="rgb(0,6,28)" stroke-width="1" opacity="1" d="M 59.5 53 L 62 53.5 L 59.5 54 L 59.5 53 Z " /><path fill="rgb(0,6,28)" stroke="rgb(0,6,28)" stroke-width="1" opacity="1" d="M 55.5 54 L 57 54.5 L 54.5 56 L 55.5 54 Z " /><path fill="rgb(0,6,28)" stroke="rgb(0,6,28)" stroke-width="1" opacity="1" d="M 83.5 55 L 84.5 57 L 83.5 55 Z " /><path fill="rgb(0,6,28)" stroke="rgb(0,6,28)" stroke-width="1" opacity="1" d="M 50.5 57 L 49.5 59 L 50.5 57 Z " /><path fill="rgb(0,6,28)" stroke="rgb(0,6,28)" stroke-width="1" opacity="1" d="M 145.5 57 L 146.5 59 L 145.5 57 Z " /><path fill="rgb(0,6,28)" stroke="rgb(0,6,28)" stroke-width="1" opacity="1" d="M 43 59 L 45 59.5 L 43 60.5 L 43 59 Z " /><path fill="rgb(0,6,28)" stroke="rgb(0,6,28)" stroke-width="1" opacity="1" d="M 148.5 59 L 149.5 61 L 148.5 59 Z " /><path fill="rgb(0,6,28)" stroke="rgb(0,6,28)" stroke-width="1" opacity="1" d="M 46.5 61 L 47 63 L 45 62.5 L 46.5 61 Z " /><path fill="rgb(0,6,28)" stroke="rgb(0,6,28)" stroke-width="1" opacity="1" d="M 66.5 69 L 73 69.5 L 66.5 70 L 66.5 69 Z " /><path fill="rgb(0,6,28)" stroke="rgb(0,6,28)" stroke-width="1" opacity="1" d="M 159.5 72 L 160 74.5 L 159 74.5 L 159.5 72 Z " /><path fill="rgb(0,6,28)" stroke="rgb(0,6,28)" stroke-width="1" opacity="1" d="M 138.5 78 L 144 78.5 L 139.5 80 L 138.5 78 Z " /><path fill="rgb(0,6,28)" stroke="rgb(0,6,28)" stroke-width="1" opacity="1" d="M 35.5 83 L 37 88.5 L 37 95.5 L 36 95.5 L 35.5 83 Z " /><path fill="rgb(0,6,28)" stroke="rgb(0,6,28)" stroke-width="1" opacity="1" d="M 37.5 83 L 38 85.5 L 37 85.5 L 37.5 83 Z " /><path fill="rgb(0,6,28)" stroke="rgb(0,6,28)" stroke-width="1" opacity="1" d="M 144.5 89 L 147 90.5 L 145.5 91 L 144.5 89 Z " /><path fill="rgb(0,6,28)" stroke="rgb(0,6,28)" stroke-width="1" opacity="1" d="M 55.5 91 L 56 95.5 L 55 95.5 L 55.5 91 Z " /><path fill="rgb(0,6,28)" stroke="rgb(0,6,28)" stroke-width="1" opacity="1" d="M 34.5 93 L 35 95.5 L 34 95.5 L 34.5 93 Z " /><path fill="rgb(0,6,28)" stroke="rgb(0,6,28)" stroke-width="1" opacity="1" d="M 150.5 94 L 151.5 96 L 150.5 94 Z " /><path fill="rgb(0,6,28)" stroke="rgb(0,6,28)" stroke-width="1" opacity="1" d="M 112.5 95 L 113.5 97 L 112.5 95 Z " /><path fill="rgb(0,6,28)" stroke="rgb(0,6,28)" stroke-width="1" opacity="1" d="M 35.5 97 L 36 102.5 L 35 102.5 L 35.5 97 Z " /><path fill="rgb(0,6,28)" stroke="rgb(0,6,28)" stroke-width="1" opacity="1" d="M 116.5 97 L 117.5 99 L 116.5 97 Z " /><path fill="rgb(0,6,28)" stroke="rgb(0,6,28)" stroke-width="1" opacity="1" d="M 33.5 99 L 34 103.5 L 33 103.5 L 33.5 99 Z " /><path fill="rgb(0,6,28)" stroke="rgb(0,6,28)" stroke-width="1" opacity="1" d="M 124.5 100 L 127 100.5 L 124.5 101 L 124.5 100 Z " /><path fill="rgb(0,6,28)" stroke="rgb(0,6,28)" stroke-width="1" opacity="1" d="M 128.5 101 L 128.5 104 Q 125.5 102.5 128.5 101 Z " /><path fill="rgb(0,6,28)" stroke="rgb(0,6,28)" stroke-width="1" opacity="1" d="M 66.5 102 L 69 103.5 L 67.5 103 L 66.5 102 Z " /><path fill="rgb(0,6,28)" stroke="rgb(0,6,28)" stroke-width="1" opacity="1" d="M 59.5 106 L 61 109.5 L 60 109.5 L 59.5 106 Z " /><path fill="rgb(0,6,28)" stroke="rgb(0,6,28)" stroke-width="1" opacity="1" d="M 116.5 108 L 118 110.5 L 117 110.5 L 116.5 108 Z " /><path fill="rgb(0,6,28)" stroke="rgb(0,6,28)" stroke-width="1" opacity="1" d="M 155.5 111 L 157 114.5 L 156 114.5 L 155.5 111 Z " /><path fill="rgb(0,6,28)" stroke="rgb(0,6,28)" stroke-width="1" opacity="1" d="M 118.5 112 L 122 114.5 L 120.5 115 L 118.5 112 Z " /><path fill="rgb(0,6,28)" stroke="rgb(0,6,28)" stroke-width="1" opacity="1" d="M 60.5 113 L 61.5 115 L 60.5 113 Z " /><path fill="rgb(0,6,28)" stroke="rgb(0,6,28)" stroke-width="1" opacity="1" d="M 66.5 116 L 72 116.5 L 66.5 117 L 66.5 116 Z " /><path fill="rgb(0,6,28)" stroke="rgb(0,6,28)" stroke-width="1" opacity="1" d="M 41.5 117 L 42.5 119 L 41.5 117 Z " /><path fill="rgb(0,6,28)" stroke="rgb(0,6,28)" stroke-width="1" opacity="1" d="M 96.5 117 L 97 119.5 L 96 119.5 L 96.5 117 Z " /><path fill="rgb(0,6,28)" stroke="rgb(0,6,28)" stroke-width="1" opacity="1" d="M 98 118 Q 101 117 100 120 Q 97 121 98 118 Z " /><path fill="rgb(0,6,28)" stroke="rgb(0,6,28)" stroke-width="1" opacity="1" d="M 44.5 121 L 46 123.5 L 44 122.5 L 44.5 121 Z " /><path fill="rgb(0,6,28)" stroke="rgb(0,6,28)" stroke-width="1" opacity="1" d="M 94.5 124 L 95 126 L 93 125.5 L 94.5 124 Z " /><path fill="rgb(0,6,28)" stroke="rgb(0,6,28)" stroke-width="1" opacity="1" d="M 150.5 124 L 151.5 126 L 150.5 124 Z " /><path fill="rgb(0,6,28)" stroke="rgb(0,6,28)" stroke-width="1" opacity="1" d="M 142 129 Q 145 128 144 131 Q 141 132 142 129 Z " /><path fill="rgb(0,6,28)" stroke="rgb(0,6,28)" stroke-width="1" opacity="1" d="M 58.5 131 L 61 132.5 L 58 133 L 58.5 131 Z " /><path fill="rgb(0,6,28)" stroke="rgb(0,6,28)" stroke-width="1" opacity="1" d="M 83.5 132 L 85 132.5 L 82.5 134 L 83.5 132 Z " /><path fill="rgb(0,6,28)" stroke="rgb(0,6,28)" stroke-width="1" opacity="1" d="M 125.5 132 L 128 132.5 L 125.5 133 L 125.5 132 Z " /><path fill="rgb(0,6,28)" stroke="rgb(0,6,28)" stroke-width="1" opacity="1" d="M 130.5 134 L 133 134.5 L 130.5 135 L 130.5 134 Z " /><path fill="rgb(0,6,28)" stroke="rgb(0,6,28)" stroke-width="1" opacity="1" d="M 48.5 135 L 51 135.5 L 48.5 136 L 48.5 135 Z " /><path fill="rgb(0,6,28)" stroke="rgb(0,6,28)" stroke-width="1" opacity="1" d="M 24.5 155 L 27.5 160 Q 31.3 159.3 32 161.5 Q 31.3 165.3 33.5 166 L 47 167.5 L 33.5 168 L 29.5 161 L 24 160 L 24.5 155 Z " /><path fill="rgb(0,6,28)" stroke="rgb(0,6,28)" stroke-width="1" opacity="1" d="M 167.5 155 L 168 160 L 161 162.5 L 158.5 168 L 145 167.5 L 158.5 166 L 160 164.5 Q 159.3 160.8 161.5 160 Q 165.3 160.8 166 158.5 L 167.5 155 Z " /><path fill="rgb(2,252,142)" stroke="rgb(2,252,142)" stroke-width="1" opacity="1" d="M 64.5 56 L 78.5 57 L 89 64 Q 89.3 69.4 93 72.5 L 93 78 L 83.5 78 L 82 76.5 Q 81.4 70.6 77.5 68 L 74.5 66 L 62.5 66 L 56 71.5 L 53 79.5 L 53 105.5 Q 55.3 106.7 54 111.5 L 59.5 118 Q 64.5 122 75.5 120 L 81 115.5 L 81 113 L 83 112.5 L 83 104.5 L 80.5 100 L 71.5 101 Q 68.8 99.8 71 98.5 Q 68.3 90.7 75.5 93 L 78.5 92 L 79.5 93 L 95 93 L 94 96.5 L 94 111.5 L 92 117.5 L 92.5 119 L 91.5 118 L 88 121.5 L 86.5 124 L 83 125.5 Q 83.8 128.1 80.5 127 L 76.5 129 L 69.5 130 L 55.5 127 L 48 120.5 L 42 110.5 Q 43.5 105 41 103.5 L 41 81.5 Q 43.1 70.1 49.5 63 L 59.5 57 L 64.5 56 Z " /><path fill="rgb(2,252,142)" stroke="rgb(2,252,142)" stroke-width="1" opacity="1" d="M 123.5 56 Q 141.8 54.7 148 65.5 L 151 73.5 L 149.5 75 L 141.5 75 L 138 69 L 136 69 Q 137.1 66.3 134.5 67 L 125.5 65 L 120.5 66 L 116 70.5 L 115 75.5 L 116 79.5 L 120.5 84 L 142.5 92 L 148.5 98 L 150 97.5 L 149 100.5 L 151 103.5 L 152 112.5 Q 150.5 120 145.5 124 Q 137.7 131.7 119.5 129 Q 117.5 126.2 113 127 Q 114.1 124.3 111.5 125 Q 103.7 120.1 103 109 L 112.5 109 L 114 110.5 Q 114.3 115.3 117.5 117 Q 122 121.5 132.5 120 L 140 114.5 L 141 106.5 L 135.5 100 L 124.5 96 L 120.5 96 L 114.5 92 L 112 92 L 112 90 L 110 90 L 110 88 Q 107.3 89.1 108 86.5 L 105 82.5 L 104 73.5 Q 106 63.5 113.5 59 L 123.5 56 Z " /><path fill="rgb(1,95,63)" stroke="rgb(1,95,63)" stroke-width="1" opacity="1" d="M 64.5 54 L 74 54.5 L 64.5 55 L 64.5 54 Z " /><path fill="rgb(1,95,63)" stroke="rgb(1,95,63)" stroke-width="1" opacity="1" d="M 120.5 54 L 133 54.5 L 117.5 56 L 117.5 55 L 120.5 54 Z " /><path fill="rgb(1,95,63)" stroke="rgb(1,95,63)" stroke-width="1" opacity="1" d="M 76.5 55 L 79 55.5 L 76.5 56 L 76.5 55 Z " /><path fill="rgb(1,95,63)" stroke="rgb(1,95,63)" stroke-width="1" opacity="1" d="M 135.5 55 L 138 55.5 L 135.5 56 L 135.5 55 Z " /><path fill="rgb(1,95,63)" stroke="rgb(1,95,63)" stroke-width="1" opacity="1" d="M 56.5 56 L 58 56.5 L 47 63.5 L 42.5 72 L 42 70.5 L 49.5 60 L 56.5 56 Z " /><path fill="rgb(1,95,63)" stroke="rgb(1,95,63)" stroke-width="1" opacity="1" d="M 114.5 56 L 116 56.5 L 107 62 L 103.5 70 L 103 67.5 L 108.5 60 L 114.5 56 Z " /><path fill="rgb(1,95,63)" stroke="rgb(1,95,63)" stroke-width="1" opacity="1" d="M 139.5 56 L 148 61 L 152 70.5 L 151 70.5 Q 149.6 62.4 143.5 59 Q 139.5 58.5 139.5 56 Z " /><path fill="rgb(1,95,63)" stroke="rgb(1,95,63)" stroke-width="1" opacity="1" d="M 82.5 57 L 88 60.5 L 86.5 61 L 82.5 57 Z " /><path fill="rgb(1,95,63)" stroke="rgb(1,95,63)" stroke-width="1" opacity="1" d="M 88.5 62 Q 94.9 66.1 95 76.5 L 94 76.5 Q 93.6 66.1 88.5 62 Z " /><path fill="rgb(1,95,63)" stroke="rgb(1,95,63)" stroke-width="1" opacity="1" d="M 64.5 67 L 73 67.5 L 64.5 68 L 64.5 67 Z " /><path fill="rgb(1,95,63)" stroke="rgb(1,95,63)" stroke-width="1" opacity="1" d="M 122.5 67 L 126 67.5 L 119 70.5 L 117.5 73 L 117 71.5 L 122.5 67 Z " /><path fill="rgb(1,95,63)" stroke="rgb(1,95,63)" stroke-width="1" opacity="1" d="M 128.5 67 L 132.5 67 L 137 70.5 L 135.5 70 L 128.5 68 L 128.5 67 Z " /><path fill="rgb(1,95,63)" stroke="rgb(1,95,63)" stroke-width="1" opacity="1" d="M 74.5 68 L 79 71.5 L 80 74.5 L 79 74.5 L 76.5 70 L 74.5 68 Z " /><path fill="rgb(1,95,63)" stroke="rgb(1,95,63)" stroke-width="1" opacity="1" d="M 60.5 69 L 58 72.5 L 56.5 76 L 56 74.5 L 60.5 69 Z " /><path fill="rgb(1,95,63)" stroke="rgb(1,95,63)" stroke-width="1" opacity="1" d="M 102.5 72 L 103 79.5 L 102 79.5 L 102.5 72 Z " /><path fill="rgb(1,95,63)" stroke="rgb(1,95,63)" stroke-width="1" opacity="1" d="M 137.5 72 L 141 77.5 L 138 75.5 L 137.5 72 Z " /><path fill="rgb(1,95,63)" stroke="rgb(1,95,63)" stroke-width="1" opacity="1" d="M 41.5 73 L 42 74.5 L 40.5 80 L 40 75.5 L 41.5 73 Z " /><path fill="rgb(1,95,63)" stroke="rgb(1,95,63)" stroke-width="1" opacity="1" d="M 117.5 76 L 120.5 81 L 136 87.5 L 134.5 88 L 120.5 82 L 117 78.5 L 117.5 76 Z " /><path fill="rgb(1,95,63)" stroke="rgb(1,95,63)" stroke-width="1" opacity="1" d="M 142.5 76 L 145 77.5 L 143.5 78 L 142.5 76 Z " /><path fill="rgb(1,95,63)" stroke="rgb(1,95,63)" stroke-width="1" opacity="1" d="M 55.5 77 L 56 79.5 L 55 79.5 L 55.5 77 Z " /><path fill="rgb(1,95,63)" stroke="rgb(1,95,63)" stroke-width="1" opacity="1" d="M 148.5 77 L 151 77.5 L 148.5 78 L 148.5 77 Z " /><path fill="rgb(1,95,63)" stroke="rgb(1,95,63)" stroke-width="1" opacity="1" d="M 95.5 78 L 94.5 80 L 81 79.5 L 94.5 79 L 95.5 78 Z " /><path fill="rgb(1,95,63)" stroke="rgb(1,95,63)" stroke-width="1" opacity="1" d="M 39.5 82 L 40 87.5 L 39 87.5 L 39.5 82 Z " /><path fill="rgb(1,95,63)" stroke="rgb(1,95,63)" stroke-width="1" opacity="1" d="M 54.5 83 L 55 86.5 L 54 86.5 L 54.5 83 Z " /><path fill="rgb(1,95,63)" stroke="rgb(1,95,63)" stroke-width="1" opacity="1" d="M 104.5 84 L 109.5 91 L 115 94.5 L 113.5 94 L 106 88.5 L 104.5 84 Z " /><path fill="rgb(1,95,63)" stroke="rgb(1,95,63)" stroke-width="1" opacity="1" d="M 140.5 89 L 143 90.5 L 141.5 91 L 140.5 89 Z " /><path fill="rgb(1,95,63)" stroke="rgb(1,95,63)" stroke-width="1" opacity="1" d="M 69.5 90 L 94.5 90 L 96 91.5 L 96 113.5 Q 93.5 121.5 87.5 126 L 83.5 128 L 83.5 127 L 91 121.5 L 95 113.5 L 95 91 L 69.5 91 L 69.5 90 Z " /><path fill="rgb(1,95,63)" stroke="rgb(1,95,63)" stroke-width="1" opacity="1" d="M 144.5 91 L 149 94 L 151 97.5 L 144.5 91 Z " /><path fill="rgb(1,95,63)" stroke="rgb(1,95,63)" stroke-width="1" opacity="1" d="M 118.5 96 L 126 98.5 L 123.5 99 L 118.5 97 L 118.5 96 Z " /><path fill="rgb(1,95,63)" stroke="rgb(1,95,63)" stroke-width="1" opacity="1" d="M 39.5 99 L 40 103.5 L 39 103.5 L 39.5 99 Z " /><path fill="rgb(1,95,63)" stroke="rgb(1,95,63)" stroke-width="1" opacity="1" d="M 127.5 99 Q 135.3 100.2 139 105.5 L 140 108.5 L 138 107.5 Q 138.5 103.5 135.5 103 L 127.5 100 L 127.5 99 Z " /><path fill="rgb(1,95,63)" stroke="rgb(1,95,63)" stroke-width="1" opacity="1" d="M 54.5 100 L 55 103.5 L 54 103.5 L 54.5 100 Z " /><path fill="rgb(1,95,63)" stroke="rgb(1,95,63)" stroke-width="1" opacity="1" d="M 68.5 100 L 69 102 L 81.5 102 L 82 103.5 L 80.5 103 L 69.5 103 L 68 101.5 L 68.5 100 Z " /><path fill="rgb(1,95,63)" stroke="rgb(1,95,63)" stroke-width="1" opacity="1" d="M 152.5 101 L 153 103.5 L 152 103.5 L 152.5 101 Z " /><path fill="rgb(1,95,63)" stroke="rgb(1,95,63)" stroke-width="1" opacity="1" d="M 102.5 106 L 101 108.5 L 100.5 111 L 100 107 L 102.5 106 Z " /><path fill="rgb(1,95,63)" stroke="rgb(1,95,63)" stroke-width="1" opacity="1" d="M 153.5 106 L 154 111.5 L 153 111.5 L 153.5 106 Z " /><path fill="rgb(1,95,63)" stroke="rgb(1,95,63)" stroke-width="1" opacity="1" d="M 40.5 107 L 41 109.5 L 40 109.5 L 40.5 107 Z " /><path fill="rgb(1,95,63)" stroke="rgb(1,95,63)" stroke-width="1" opacity="1" d="M 114.5 107 L 118 115 L 124 117.5 L 121.5 118 L 116 113.5 L 114.5 107 Z " /><path fill="rgb(1,95,63)" stroke="rgb(1,95,63)" stroke-width="1" opacity="1" d="M 81.5 109 L 82 111.5 L 80 112.5 L 81.5 109 Z " /><path fill="rgb(1,95,63)" stroke="rgb(1,95,63)" stroke-width="1" opacity="1" d="M 56.5 110 L 60.5 116 Q 64.5 119.5 73.5 118 L 79.5 114 L 78.5 116 Q 74.7 120.7 64.5 119 L 57 113.5 L 56.5 110 Z " /><path fill="rgb(1,95,63)" stroke="rgb(1,95,63)" stroke-width="1" opacity="1" d="M 138.5 111 L 139 113.5 L 131.5 119 L 125.5 119 L 125.5 118 Q 135.2 119.2 138 113.5 L 138.5 111 Z " /><path fill="rgb(1,95,63)" stroke="rgb(1,95,63)" stroke-width="1" opacity="1" d="M 41.5 112 Q 44.3 121.2 51.5 126 L 54 127.5 L 52.5 127 L 44 119.5 L 41.5 112 Z " /><path fill="rgb(1,95,63)" stroke="rgb(1,95,63)" stroke-width="1" opacity="1" d="M 101.5 112 Q 103.4 122.6 111.5 127 L 115 128.5 L 113.5 129 L 106 123.5 Q 101 119.3 101.5 112 Z " /><path fill="rgb(1,95,63)" stroke="rgb(1,95,63)" stroke-width="1" opacity="1" d="M 151.5 118 L 152 119.5 L 145.5 127 L 136.5 131 L 129.5 131 L 129.5 130 Q 143.5 130.5 149 122.5 L 151.5 118 Z " /><path fill="rgb(1,95,63)" stroke="rgb(1,95,63)" stroke-width="1" opacity="1" d="M 57.5 129 L 64 130.5 L 60.5 131 L 57.5 130 L 57.5 129 Z " /><path fill="rgb(1,95,63)" stroke="rgb(1,95,63)" stroke-width="1" opacity="1" d="M 72.5 130 L 77 130.5 L 72.5 131 L 72.5 130 Z " /><path fill="rgb(1,95,63)" stroke="rgb(1,95,63)" stroke-width="1" opacity="1" d="M 119.5 130 L 126 130.5 L 119.5 131 L 119.5 130 Z " /><path fill="rgb(29,223,147)" stroke="rgb(29,223,147)" stroke-width="1" opacity="1" d="M 61.5 55 L 75.5 55 L 88 61 L 93 69.5 L 95 79 L 81.5 79 L 81 76.5 Q 79.8 70.8 75.5 68 L 64.5 67 L 57 72.5 L 54 83.5 L 54 103.5 L 56 111.5 L 60.5 117 Q 64.5 120.5 73.5 119 L 80 114.5 Q 83.4 111.4 82.5 104 L 83 113 Q 80 111.8 81 115.5 L 75.5 120 L 63.5 120 L 56 114.5 L 54 111.5 Q 55.3 106.7 53 105.5 L 53 79.5 Q 54.5 71 60.5 67 L 62.5 66 L 74.5 66 L 80 70.5 L 83.5 78 L 93 78 L 93 72.5 Q 89.3 69.4 89 64 L 78.5 57 L 64.5 56 L 55.5 59 L 47 65.5 L 41 81.5 L 41 103.5 Q 43.5 105 42 110.5 L 44 114.5 L 51.5 124 L 61.5 129 L 70.5 130 L 83 127 L 84.5 124 L 88 122.5 Q 92.7 118.7 94 111.5 L 94.5 96 L 95 113.5 Q 92.8 120.8 87.5 125 L 77.5 130 L 64.5 131 L 54.5 128 L 45 119.5 L 40 106.5 L 39 88.5 L 42 72.5 L 48.5 62 L 61.5 55 Z " /><path fill="rgb(29,223,147)" stroke="rgb(29,223,147)" stroke-width="1" opacity="1" d="M 120.5 55 Q 131.4 53.6 138.5 56 L 149 64.5 Q 152.9 69 152 77 L 143.5 77 L 142.5 76 L 140.5 77 L 135.5 69 Q 132 65 122.5 67 L 117 71.5 Q 115.3 80.3 120.5 82 L 143.5 91 L 149 96.5 L 151 99.5 Q 154.4 104.6 153 114.5 Q 150.9 121.9 145.5 126 L 136.5 130 L 126.5 131 Q 124.8 128.3 118.5 130 L 111.5 127 L 104 119.5 L 101 108.5 L 102.5 107 L 114 107 Q 114.3 113.1 118.5 116 Q 122.6 119.9 131.5 119 L 139 113.5 L 140 108.5 L 135.5 102 L 129.5 99 L 117.5 96 L 107 88.5 Q 101.3 83.2 103 70.5 L 107 62 L 112.5 58 L 120.5 55 Z M 124 56 L 114 59 Q 106 64 104 74 L 105 83 L 108 87 Q 107 89 110 88 L 110 90 L 112 90 L 112 92 L 115 92 L 121 96 L 125 96 L 136 100 L 141 107 L 140 115 L 133 120 Q 122 122 118 117 Q 114 115 114 111 L 113 109 L 103 109 Q 104 120 112 125 Q 114 124 113 127 Q 117 126 120 129 Q 138 132 146 124 Q 151 120 152 113 L 152 108 L 149 99 L 143 92 L 121 84 L 116 80 L 115 76 L 116 71 L 121 66 L 126 65 L 135 67 Q 137 66 136 69 L 138 69 L 142 75 L 150 75 L 151 74 L 148 66 Q 142 55 124 56 Z " /><path fill="rgb(29,223,147)" stroke="rgb(29,223,147)" stroke-width="1" opacity="1" d="M 69 91 L 94.5 91 L 95 93 L 79.5 93 L 76.5 92 L 71 93 L 70 99.5 Q 71.5 102.5 77.5 101 L 80.5 100 L 81.5 102 L 69 102 L 69 91 Z " /><path fill="rgb(0,29,25)" stroke="rgb(0,29,25)" stroke-width="1" opacity="1" d="M 65.5 53 L 72 53.5 L 65.5 54 L 65.5 53 Z " /><path fill="rgb(0,29,25)" stroke="rgb(0,29,25)" stroke-width="1" opacity="1" d="M 123.5 53 L 131 53.5 L 123.5 54 L 123.5 53 Z " /><path fill="rgb(0,29,25)" stroke="rgb(0,29,25)" stroke-width="1" opacity="1" d="M 58.5 54 L 64 54.5 Q 55 55 50.5 60 L 52.5 57 L 58.5 54 Z " /><path fill="rgb(0,29,25)" stroke="rgb(0,29,25)" stroke-width="1" opacity="1" d="M 74.5 54 L 81.5 55 L 87 58 L 86.5 60 L 78.5 55 L 74.5 55 L 74.5 54 Z " /><path fill="rgb(0,29,25)" stroke="rgb(0,29,25)" stroke-width="1" opacity="1" d="M 116.5 54 L 120 54.5 L 113.5 57 L 114.5 55 L 116.5 54 Z " /><path fill="rgb(0,29,25)" stroke="rgb(0,29,25)" stroke-width="1" opacity="1" d="M 133.5 54 Q 139.3 53.2 141 56.5 L 139.5 56 L 133.5 55 L 133.5 54 Z " /><path fill="rgb(0,29,25)" stroke="rgb(0,29,25)" stroke-width="1" opacity="1" d="M 111.5 57 L 109.5 60 L 106 62.5 Q 102.1 65.5 103 72 Q 100.3 73.1 101 70.5 L 106 60 L 111.5 57 Z " /><path fill="rgb(0,29,25)" stroke="rgb(0,29,25)" stroke-width="1" opacity="1" d="M 142.5 57 L 148 60.5 L 146.5 61 L 142.5 57 Z " /><path fill="rgb(0,29,25)" stroke="rgb(0,29,25)" stroke-width="1" opacity="1" d="M 48.5 60 L 47.5 62 L 48.5 60 Z " /><path fill="rgb(0,29,25)" stroke="rgb(0,29,25)" stroke-width="1" opacity="1" d="M 88.5 60 L 90 63 Q 92.7 61.9 92 64.5 L 94 68.5 L 93 68.5 L 88 61.5 L 88.5 60 Z " /><path fill="rgb(0,29,25)" stroke="rgb(0,29,25)" stroke-width="1" opacity="1" d="M 148.5 62 L 151 63.5 L 149.5 64 L 148.5 62 Z " /><path fill="rgb(0,29,25)" stroke="rgb(0,29,25)" stroke-width="1" opacity="1" d="M 45.5 64 L 44 66.5 L 40 75.5 Q 41.5 81 39 82.5 L 39 103.5 L 41 112.5 L 39 111.5 Q 40.5 106 38 104.5 L 38 80.5 Q 39.6 70.1 45.5 64 Z " /><path fill="rgb(0,29,25)" stroke="rgb(0,29,25)" stroke-width="1" opacity="1" d="M 151.5 67 Q 154.5 66.5 153 73.5 L 154 76.5 L 151.5 78 L 152 76.5 Q 152.7 69 151.5 67 Z " /><path fill="rgb(0,29,25)" stroke="rgb(0,29,25)" stroke-width="1" opacity="1" d="M 63.5 68 L 68 68.5 Q 62.3 68.3 60 71.5 L 56 80.5 L 55 98.5 L 57 109.5 L 56 109.5 L 54 99.5 L 54 87.5 L 56 76.5 L 61.5 69 L 63.5 68 Z " /><path fill="rgb(0,29,25)" stroke="rgb(0,29,25)" stroke-width="1" opacity="1" d="M 70.5 68 L 73.5 68 L 78 71.5 L 79 73.5 L 77.5 73 Q 75.3 73.8 76 71.5 Q 75.3 68.3 70.5 69 L 70.5 68 Z " /><path fill="rgb(0,29,25)" stroke="rgb(0,29,25)" stroke-width="1" opacity="1" d="M 122.5 68 L 121.5 70 L 119.5 71 L 120.5 69 L 122.5 68 Z " /><path fill="rgb(0,29,25)" stroke="rgb(0,29,25)" stroke-width="1" opacity="1" d="M 133.5 69 L 137 71.5 L 138 74.5 L 137 74.5 L 133.5 69 Z " /><path fill="rgb(0,29,25)" stroke="rgb(0,29,25)" stroke-width="1" opacity="1" d="M 118.5 72 L 118 73.5 L 117.5 76 L 117 73.5 L 118.5 72 Z " /><path fill="rgb(0,29,25)" stroke="rgb(0,29,25)" stroke-width="1" opacity="1" d="M 101.5 74 L 102 76.5 L 101 76.5 L 101.5 74 Z " /><path fill="rgb(0,29,25)" stroke="rgb(0,29,25)" stroke-width="1" opacity="1" d="M 79.5 75 L 81 78.5 L 79 77.5 L 79.5 75 Z " /><path fill="rgb(0,29,25)" stroke="rgb(0,29,25)" stroke-width="1" opacity="1" d="M 95.5 75 L 97 78.5 L 95 77.5 L 95.5 75 Z " /><path fill="rgb(0,29,25)" stroke="rgb(0,29,25)" stroke-width="1" opacity="1" d="M 138.5 76 L 139.5 78 Q 136.7 78.7 138.5 76 Z " /><path fill="rgb(0,29,25)" stroke="rgb(0,29,25)" stroke-width="1" opacity="1" d="M 145.5 77 L 148 77.5 L 145.5 78 L 145.5 77 Z " /><path fill="rgb(0,29,25)" stroke="rgb(0,29,25)" stroke-width="1" opacity="1" d="M 119.5 79 L 123 81.5 L 121.5 81 L 119.5 79 Z " /><path fill="rgb(0,29,25)" stroke="rgb(0,29,25)" stroke-width="1" opacity="1" d="M 82.5 80 L 94 80.5 L 82.5 81 L 82.5 80 Z " /><path fill="rgb(0,29,25)" stroke="rgb(0,29,25)" stroke-width="1" opacity="1" d="M 102.5 80 L 104 84.5 L 102 83.5 L 102.5 80 Z " /><path fill="rgb(0,29,25)" stroke="rgb(0,29,25)" stroke-width="1" opacity="1" d="M 131.5 85 L 140 88.5 L 138.5 88 L 131.5 86 L 131.5 85 Z " /><path fill="rgb(0,29,25)" stroke="rgb(0,29,25)" stroke-width="1" opacity="1" d="M 104.5 86 L 110 92.5 L 105 88.5 L 104.5 86 Z " /><path fill="rgb(0,29,25)" stroke="rgb(0,29,25)" stroke-width="1" opacity="1" d="M 89.5 89 L 92 89.5 L 89.5 90 L 89.5 89 Z " /><path fill="rgb(0,29,25)" stroke="rgb(0,29,25)" stroke-width="1" opacity="1" d="M 142.5 89 L 148 93.5 L 144.5 91 L 142.5 89 Z " /><path fill="rgb(0,29,25)" stroke="rgb(0,29,25)" stroke-width="1" opacity="1" d="M 95.5 90 L 97 91.5 L 97 109.5 L 96 109.5 L 96 91.5 L 95.5 90 Z " /><path fill="rgb(0,29,25)" stroke="rgb(0,29,25)" stroke-width="1" opacity="1" d="M 67.5 91 L 69 91.5 L 69 99.5 L 68 101.5 L 69.5 104 L 67 100.5 L 68 96.5 L 68 94.5 L 67.5 91 Z " /><path fill="rgb(0,29,25)" stroke="rgb(0,29,25)" stroke-width="1" opacity="1" d="M 113.5 94 L 120 97.5 L 118.5 98 Q 113.9 97.2 113.5 94 Z " /><path fill="rgb(0,29,25)" stroke="rgb(0,29,25)" stroke-width="1" opacity="1" d="M 149.5 94 L 154 101.5 L 155 113.5 L 151.5 121 L 152 119.5 L 154 106.5 L 153 101.5 L 149 95.5 L 149.5 94 Z " /><path fill="rgb(0,29,25)" stroke="rgb(0,29,25)" stroke-width="1" opacity="1" d="M 124.5 99 L 132 101.5 L 130.5 102 L 124.5 100 L 124.5 99 Z " /><path fill="rgb(0,29,25)" stroke="rgb(0,29,25)" stroke-width="1" opacity="1" d="M 133.5 102 L 138 105.5 L 137.5 107 L 133.5 102 Z " /><path fill="rgb(0,29,25)" stroke="rgb(0,29,25)" stroke-width="1" opacity="1" d="M 71.5 103 L 78 103.5 L 71.5 104 L 71.5 103 Z " /><path fill="rgb(0,29,25)" stroke="rgb(0,29,25)" stroke-width="1" opacity="1" d="M 81.5 104 L 82 108.5 L 80 114 L 73.5 118 L 64 118 L 64.5 116 L 65.5 117 L 73.5 117 L 80 111.5 L 81.5 104 Z " /><path fill="rgb(0,29,25)" stroke="rgb(0,29,25)" stroke-width="1" opacity="1" d="M 102.5 105 L 105.5 106 L 114.5 106 L 116 107.5 L 115.5 109 L 115 107 L 103.5 107 L 102.5 106 L 101 106.5 L 102.5 105 Z " /><path fill="rgb(0,29,25)" stroke="rgb(0,29,25)" stroke-width="1" opacity="1" d="M 138.5 108 L 139 110.5 L 138 110.5 L 138.5 108 Z " /><path fill="rgb(0,29,25)" stroke="rgb(0,29,25)" stroke-width="1" opacity="1" d="M 57.5 111 L 60 115 L 63 116.5 L 61.5 116 L 59 114.5 L 57.5 111 Z " /><path fill="rgb(0,29,25)" stroke="rgb(0,29,25)" stroke-width="1" opacity="1" d="M 100.5 111 L 101 113.5 L 100 113.5 L 100.5 111 Z " /><path fill="rgb(0,29,25)" stroke="rgb(0,29,25)" stroke-width="1" opacity="1" d="M 137.5 112 L 138 113.5 L 133.5 117 L 135.5 114 Q 138 114.7 137.5 112 Z " /><path fill="rgb(0,29,25)" stroke="rgb(0,29,25)" stroke-width="1" opacity="1" d="M 101.5 115 L 103 118.5 L 101 117.5 L 101.5 115 Z " /><path fill="rgb(0,29,25)" stroke="rgb(0,29,25)" stroke-width="1" opacity="1" d="M 120.5 115 L 123 116.5 L 121.5 117 L 120.5 115 Z " /><path fill="rgb(0,29,25)" stroke="rgb(0,29,25)" stroke-width="1" opacity="1" d="M 42.5 116 L 44 118.5 L 42 117.5 L 42.5 116 Z " /><path fill="rgb(0,29,25)" stroke="rgb(0,29,25)" stroke-width="1" opacity="1" d="M 124.5 117 L 132 117.5 L 124.5 118 L 124.5 117 Z " /><path fill="rgb(0,29,25)" stroke="rgb(0,29,25)" stroke-width="1" opacity="1" d="M 93.5 119 L 93 120.5 L 91.5 123 L 92 121.5 L 93.5 119 Z " /><path fill="rgb(0,29,25)" stroke="rgb(0,29,25)" stroke-width="1" opacity="1" d="M 44.5 120 L 50.5 127 L 47 125 L 44.5 120 Z " /><path fill="rgb(0,29,25)" stroke="rgb(0,29,25)" stroke-width="1" opacity="1" d="M 103.5 120 L 107.5 125 L 113 128.5 L 111.5 129 L 105 123.5 Q 105.7 120.9 103 122 L 103.5 120 Z " /><path fill="rgb(0,29,25)" stroke="rgb(0,29,25)" stroke-width="1" opacity="1" d="M 150.5 122 L 146.5 127 L 150.5 122 Z " /><path fill="rgb(0,29,25)" stroke="rgb(0,29,25)" stroke-width="1" opacity="1" d="M 89.5 124 L 88.5 126 L 89.5 124 Z " /><path fill="rgb(0,29,25)" stroke="rgb(0,29,25)" stroke-width="1" opacity="1" d="M 86.5 126 L 84.5 129 L 80.5 130 L 80.5 129 L 86.5 126 Z " /><path fill="rgb(0,29,25)" stroke="rgb(0,29,25)" stroke-width="1" opacity="1" d="M 52.5 127 L 57 129.5 L 55.5 130 L 52.5 127 Z " /><path fill="rgb(0,29,25)" stroke="rgb(0,29,25)" stroke-width="1" opacity="1" d="M 144.5 127 L 143.5 129 L 140.5 130 L 140.5 129 L 144.5 127 Z " /><path fill="rgb(0,29,25)" stroke="rgb(0,29,25)" stroke-width="1" opacity="1" d="M 77.5 130 L 79 130.5 L 76.5 132 L 62.5 132 L 62.5 131 L 76.5 131 L 77.5 130 Z " /><path fill="rgb(0,29,25)" stroke="rgb(0,29,25)" stroke-width="1" opacity="1" d="M 120.5 131 L 135 131.5 L 120.5 132 L 120.5 131 Z " /><path fill="rgb(3,6,36)" stroke="rgb(3,6,36)" stroke-width="1" opacity="1" d="M 31.5 27 L 32 32 Q 26.8 34.1 28 29.5 L 31.5 27 Z " /><path fill="rgb(3,6,36)" stroke="rgb(3,6,36)" stroke-width="1" opacity="1" d="M 160.5 27 L 164 29.5 Q 165.2 34.1 160 32 L 160.5 27 Z " /><path fill="rgb(3,6,36)" stroke="rgb(3,6,36)" stroke-width="1" opacity="1" d="M 48 48 Q 51 47 50 50 Q 47 51 48 48 Z " /><path fill="rgb(3,6,36)" stroke="rgb(3,6,36)" stroke-width="1" opacity="1" d="M 100 48 L 104 49.5 L 96.5 54 L 93 51.5 L 95.5 51 L 97.5 51 L 100 49.5 L 100 48 Z " /><path fill="rgb(3,6,36)" stroke="rgb(3,6,36)" stroke-width="1" opacity="1" d="M 159.5 48 L 160 50 L 158 49.5 L 159.5 48 Z " /><path fill="rgb(3,6,36)" stroke="rgb(3,6,36)" stroke-width="1" opacity="1" d="M 150.5 49 L 153 50.5 L 153 52 L 149 52 L 150.5 49 Z " /><path fill="rgb(3,6,36)" stroke="rgb(3,6,36)" stroke-width="1" opacity="1" d="M 60.5 50 L 67 51.5 L 56.5 53 L 51.5 56 L 51 54.5 L 52 52 Q 58 53.2 60.5 50 Z " /><path fill="rgb(3,6,36)" stroke="rgb(3,6,36)" stroke-width="1" opacity="1" d="M 120 50 L 132.5 50 L 134 51.5 L 132.5 51 L 127.5 52 L 125.5 52 Q 118.6 54 120 50 Z " /><path fill="rgb(3,6,36)" stroke="rgb(3,6,36)" stroke-width="1" opacity="1" d="M 142.5 50 L 145 50.5 Q 145.7 53.5 142 52 L 142.5 50 Z " /><path fill="rgb(3,6,36)" stroke="rgb(3,6,36)" stroke-width="1" opacity="1" d="M 76.5 52 L 80 52.5 L 76.5 53 L 76.5 52 Z " /><path fill="rgb(3,6,36)" stroke="rgb(3,6,36)" stroke-width="1" opacity="1" d="M 110.5 52 L 115 52.5 L 108.5 56 L 102.5 62 Q 99.8 60.8 102 59.5 L 104.5 56 L 110.5 52 Z " /><path fill="rgb(3,6,36)" stroke="rgb(3,6,36)" stroke-width="1" opacity="1" d="M 83.5 54 Q 89 53 90 56.5 L 92.5 60 Q 95.1 59.3 94 62 L 96 62 L 97.5 59 L 98 61.5 L 95 63.5 L 96 66.5 L 94 65.5 L 95 64.5 L 92 61.5 L 90.5 59 L 83.5 55 L 83.5 54 Z " /><path fill="rgb(3,6,36)" stroke="rgb(3,6,36)" stroke-width="1" opacity="1" d="M 156 55 Q 160.5 53.5 159 58 Q 154.5 59.5 156 55 Z " /><path fill="rgb(3,6,36)" stroke="rgb(3,6,36)" stroke-width="1" opacity="1" d="M 47.5 56 Q 50.8 54.9 50 57.5 L 48.5 57 L 47.5 56 Z " /><path fill="rgb(3,6,36)" stroke="rgb(3,6,36)" stroke-width="1" opacity="1" d="M 156.5 61 L 158 65 Q 154.2 66.2 156.5 61 Z " /><path fill="rgb(3,6,36)" stroke="rgb(3,6,36)" stroke-width="1" opacity="1" d="M 100.5 63 L 102 65.5 L 99 67 L 100.5 63 Z " /><path fill="rgb(3,6,36)" stroke="rgb(3,6,36)" stroke-width="1" opacity="1" d="M 40 64 L 42 64.5 L 40 65.5 L 40 64 Z " /><path fill="rgb(3,6,36)" stroke="rgb(3,6,36)" stroke-width="1" opacity="1" d="M 34.5 67 Q 37.3 68.3 35 69.5 L 33.5 72 Q 30.9 72.8 32 69.5 L 34.5 67 Z " /><path fill="rgb(3,6,36)" stroke="rgb(3,6,36)" stroke-width="1" opacity="1" d="M 155.5 69 L 156 73.5 L 155 73.5 L 154 70.5 L 155.5 69 Z " /><path fill="rgb(3,6,36)" stroke="rgb(3,6,36)" stroke-width="1" opacity="1" d="M 68 70 Q 73 69.2 75 72.5 L 74.5 74 Q 77.1 73.3 76 76 Q 73.3 77.1 74 74.5 Q 72.7 71 68 72 L 68 70 Z " /><path fill="rgb(3,6,36)" stroke="rgb(3,6,36)" stroke-width="1" opacity="1" d="M 122.5 70 Q 126.3 69.3 127 71.5 L 122 73 L 120.5 76 L 120 72.5 L 122.5 70 Z " /><path fill="rgb(3,6,36)" stroke="rgb(3,6,36)" stroke-width="1" opacity="1" d="M 63.5 71 L 67 77 L 61 75 Q 59.5 71.2 62.5 72 L 63.5 71 Z " /><path fill="rgb(3,6,36)" stroke="rgb(3,6,36)" stroke-width="1" opacity="1" d="M 129.5 71 L 135 72 L 136 75.5 Q 134 79 132 74.5 L 130.5 72 L 129.5 71 Z " /><path fill="rgb(3,6,36)" stroke="rgb(3,6,36)" stroke-width="1" opacity="1" d="M 98 72 Q 101.5 70.9 100 78.5 L 98 79.5 L 99 76.5 L 98 72 Z " /><path fill="rgb(3,6,36)" stroke="rgb(3,6,36)" stroke-width="1" opacity="1" d="M 59.5 75 L 60 80 Q 57 81.3 58 77.5 L 59.5 75 Z " /><path fill="rgb(3,6,36)" stroke="rgb(3,6,36)" stroke-width="1" opacity="1" d="M 126 76 Q 129 75 128 78 Q 125 79 126 76 Z " /><path fill="rgb(3,6,36)" stroke="rgb(3,6,36)" stroke-width="1" opacity="1" d="M 36 77 Q 39 75.8 38 79.5 L 36.5 83 L 36 77 Z " /><path fill="rgb(3,6,36)" stroke="rgb(3,6,36)" stroke-width="1" opacity="1" d="M 121.5 77 L 122.5 79 Q 119.7 79.7 121.5 77 Z " /><path fill="rgb(3,6,36)" stroke="rgb(3,6,36)" stroke-width="1" opacity="1" d="M 67 78 L 71 79.5 L 67 80 L 67 78 Z " /><path fill="rgb(3,6,36)" stroke="rgb(3,6,36)" stroke-width="1" opacity="1" d="M 147.5 79 L 153 82.5 Q 153.8 85.1 150.5 84 L 148 83 Q 149.1 80.3 146.5 81 Q 145.8 83.7 141.5 83 L 143.5 80 L 147.5 79 Z " /><path fill="rgb(3,6,36)" stroke="rgb(3,6,36)" stroke-width="1" opacity="1" d="M 78.5 81 L 81 82.5 L 78.5 84 Q 75.5 82.5 78.5 81 Z " /><path fill="rgb(3,6,36)" stroke="rgb(3,6,36)" stroke-width="1" opacity="1" d="M 84.5 81 L 92.5 82 L 94.5 81 Q 97.5 82.5 94.5 84 L 90.5 83 L 89.5 84 L 82 84 Q 80.9 81.3 83.5 82 L 84.5 81 Z " /><path fill="rgb(3,6,36)" stroke="rgb(3,6,36)" stroke-width="1" opacity="1" d="M 100.5 82 L 102 87 Q 97.9 88.2 100.5 82 Z " /><path fill="rgb(3,6,36)" stroke="rgb(3,6,36)" stroke-width="1" opacity="1" d="M 136.5 84 L 144 86 Q 145.3 89 141.5 88 Q 136.9 86.8 136.5 84 Z " /><path fill="rgb(3,6,36)" stroke="rgb(3,6,36)" stroke-width="1" opacity="1" d="M 155 85 Q 158.8 84 160 86.5 Q 160.8 88.8 158.5 88 L 156 89 L 155 85 Z " /><path fill="rgb(3,6,36)" stroke="rgb(3,6,36)" stroke-width="1" opacity="1" d="M 60 86 L 62 86.5 L 62 93.5 L 61 93.5 L 60 86 Z " /><path fill="rgb(3,6,36)" stroke="rgb(3,6,36)" stroke-width="1" opacity="1" d="M 73 86 L 76 87.5 L 73 88 L 73 86 Z " /><path fill="rgb(3,6,36)" stroke="rgb(3,6,36)" stroke-width="1" opacity="1" d="M 83.5 86 L 86 87.5 L 80.5 88 L 80.5 87 L 83.5 86 Z " /><path fill="rgb(3,6,36)" stroke="rgb(3,6,36)" stroke-width="1" opacity="1" d="M 57.5 87 L 58 103.5 L 57 103.5 L 56 91.5 L 57.5 87 Z " /><path fill="rgb(3,6,36)" stroke="rgb(3,6,36)" stroke-width="1" opacity="1" d="M 99.5 88 L 98.5 90 L 99.5 88 Z " /><path fill="rgb(3,6,36)" stroke="rgb(3,6,36)" stroke-width="1" opacity="1" d="M 148.5 88 L 150.5 91 L 147 89.5 L 148.5 88 Z " /><path fill="rgb(3,6,36)" stroke="rgb(3,6,36)" stroke-width="1" opacity="1" d="M 104 91 Q 106.7 89.9 106 92.5 L 106.5 94 L 104 93 Q 106.2 98.6 100.5 97 L 101 95.5 Q 100.3 93.3 102.5 94 L 104 91 Z " /><path fill="rgb(3,6,36)" stroke="rgb(3,6,36)" stroke-width="1" opacity="1" d="M 65.5 94 L 65 95.5 L 64.5 99 L 64 95.5 L 65.5 94 Z " /><path fill="rgb(3,6,36)" stroke="rgb(3,6,36)" stroke-width="1" opacity="1" d="M 109.5 94 L 110 96 Q 113 95 112 98 L 108 96.5 L 109.5 94 Z " /><path fill="rgb(3,6,36)" stroke="rgb(3,6,36)" stroke-width="1" opacity="1" d="M 155.5 94 Q 160.3 92.7 159 96 Q 154.5 94.3 156 99.5 L 153 97.5 Q 151.9 94.2 154.5 95 L 155.5 94 Z " /><path fill="rgb(3,6,36)" stroke="rgb(3,6,36)" stroke-width="1" opacity="1" d="M 61.5 95 L 62 104 Q 58.5 105.1 60 97.5 L 61.5 95 Z " /><path fill="rgb(3,6,36)" stroke="rgb(3,6,36)" stroke-width="1" opacity="1" d="M 97.5 95 Q 100.5 96.5 97.5 98 L 97.5 95 Z " /><path fill="rgb(3,6,36)" stroke="rgb(3,6,36)" stroke-width="1" opacity="1" d="M 123.5 100 L 127 101.5 L 125 102 L 124 105.5 L 124.5 107 Q 121.5 107.9 123 103.5 L 121.5 101 L 123.5 100 Z " /><path fill="rgb(3,6,36)" stroke="rgb(3,6,36)" stroke-width="1" opacity="1" d="M 105.5 101 L 107.5 104 Q 103.1 105.1 105.5 101 Z " /><path fill="rgb(3,6,36)" stroke="rgb(3,6,36)" stroke-width="1" opacity="1" d="M 157.5 101 L 160 102.5 L 158 104.5 Q 159.3 109.8 156.5 111 L 157 109.5 L 158 102.5 L 157.5 101 Z " /><path fill="rgb(3,6,36)" stroke="rgb(3,6,36)" stroke-width="1" opacity="1" d="M 65.5 103 L 69.5 105 L 78.5 104 L 79.5 106 L 66.5 106 L 65 104.5 L 65.5 103 Z " /><path fill="rgb(3,6,36)" stroke="rgb(3,6,36)" stroke-width="1" opacity="1" d="M 129.5 103 L 136 107.5 Q 137 111.3 134 110 L 132.5 106 L 129.5 103 Z " /><path fill="rgb(3,6,36)" stroke="rgb(3,6,36)" stroke-width="1" opacity="1" d="M 36.5 104 L 40 117 Q 37.3 118.1 38 115.5 Q 34.5 111.6 36.5 104 Z " /><path fill="rgb(3,6,36)" stroke="rgb(3,6,36)" stroke-width="1" opacity="1" d="M 117.5 104 Q 122 106 118.5 108 L 117 107.5 L 117.5 106 L 116 105.5 L 117.5 104 Z " /><path fill="rgb(3,6,36)" stroke="rgb(3,6,36)" stroke-width="1" opacity="1" d="M 32.5 107 L 33 111.5 L 32 111.5 L 32.5 107 Z " /><path fill="rgb(3,6,36)" stroke="rgb(3,6,36)" stroke-width="1" opacity="1" d="M 64 108 L 68 108.5 L 64 110 L 64 108 Z " /><path fill="rgb(3,6,36)" stroke="rgb(3,6,36)" stroke-width="1" opacity="1" d="M 78.5 109 L 79 112 L 75.5 113 L 78.5 109 Z " /><path fill="rgb(3,6,36)" stroke="rgb(3,6,36)" stroke-width="1" opacity="1" d="M 125.5 110 L 128 110.5 L 125.5 111 L 125.5 110 Z " /><path fill="rgb(3,6,36)" stroke="rgb(3,6,36)" stroke-width="1" opacity="1" d="M 120.5 111 L 124 112.5 L 123.5 114 L 130 114.5 L 126.5 116 L 123.5 115 L 120 112.5 L 120.5 111 Z " /><path fill="rgb(3,6,36)" stroke="rgb(3,6,36)" stroke-width="1" opacity="1" d="M 61.5 112 Q 64.8 110.9 64 113.5 L 64.5 115 L 61.5 112 Z " /><path fill="rgb(3,6,36)" stroke="rgb(3,6,36)" stroke-width="1" opacity="1" d="M 134.5 112 L 135 113.5 L 133 114.5 L 134.5 112 Z " /><path fill="rgb(3,6,36)" stroke="rgb(3,6,36)" stroke-width="1" opacity="1" d="M 66.5 114 Q 73.4 112 72 116 Q 66.3 117.2 66.5 114 Z " /><path fill="rgb(3,6,36)" stroke="rgb(3,6,36)" stroke-width="1" opacity="1" d="M 32.5 116 Q 35.8 114.9 35 117.5 L 33.5 117 L 32.5 116 Z " /><path fill="rgb(3,6,36)" stroke="rgb(3,6,36)" stroke-width="1" opacity="1" d="M 98.5 116 L 99.5 118 Q 96.7 118.7 98.5 116 Z " /><path fill="rgb(3,6,36)" stroke="rgb(3,6,36)" stroke-width="1" opacity="1" d="M 159.5 118 Q 162.3 119.3 160 120.5 L 159.5 122 L 158 119.5 L 159.5 118 Z " /><path fill="rgb(3,6,36)" stroke="rgb(3,6,36)" stroke-width="1" opacity="1" d="M 35.5 120 Q 40 121 39 127.5 L 35.5 125 Q 32.2 123.9 33 126.5 L 32 126.5 L 35.5 120 Z " /><path fill="rgb(3,6,36)" stroke="rgb(3,6,36)" stroke-width="1" opacity="1" d="M 100.5 120 L 101 122 Q 103.7 120.9 103 123.5 L 104 126 L 100 123.5 L 100.5 120 Z " /><path fill="rgb(3,6,36)" stroke="rgb(3,6,36)" stroke-width="1" opacity="1" d="M 153 120 L 155 120 L 155 125 Q 150.9 126.7 152 122.5 L 153 120 Z " /><path fill="rgb(3,6,36)" stroke="rgb(3,6,36)" stroke-width="1" opacity="1" d="M 42.5 121 L 46 126 L 50 128.5 L 47.5 129 L 42 124.5 L 42.5 121 Z " /><path fill="rgb(3,6,36)" stroke="rgb(3,6,36)" stroke-width="1" opacity="1" d="M 96 126 Q 100.1 124.7 99 128 L 94.5 129 L 94.5 128 Q 97.1 128.7 96 126 Z " /><path fill="rgb(3,6,36)" stroke="rgb(3,6,36)" stroke-width="1" opacity="1" d="M 105.5 126 L 107 129 Q 103.5 130.1 105.5 126 Z " /><path fill="rgb(3,6,36)" stroke="rgb(3,6,36)" stroke-width="1" opacity="1" d="M 150.5 126 L 151 127.5 L 148 129 Q 146.9 126.3 149.5 127 L 150.5 126 Z " /><path fill="rgb(3,6,36)" stroke="rgb(3,6,36)" stroke-width="1" opacity="1" d="M 88.5 128 Q 90.8 127.3 90 129.5 L 87 131.5 L 88.5 128 Z " /><path fill="rgb(3,6,36)" stroke="rgb(3,6,36)" stroke-width="1" opacity="1" d="M 52.5 131 L 56 131.5 L 52.5 132 L 52.5 131 Z " /><path fill="rgb(3,6,36)" stroke="rgb(3,6,36)" stroke-width="1" opacity="1" d="M 142.5 131 L 145 131.5 L 142.5 132 L 142.5 131 Z " /><path fill="rgb(3,6,36)" stroke="rgb(3,6,36)" stroke-width="1" opacity="1" d="M 59.5 133 Q 61.8 132.3 61 134.5 L 59.5 133 Z " /><path fill="rgb(3,6,36)" stroke="rgb(3,6,36)" stroke-width="1" opacity="1" d="M 76.5 133 L 79 133.5 L 76.5 134 L 76.5 133 Z " /><path fill="rgb(3,6,36)" stroke="rgb(3,6,36)" stroke-width="1" opacity="1" d="M 84 136 Q 88.5 134.3 87 139.5 L 84.5 141 L 83 138.5 L 84 136 Z " /><path fill="rgb(3,6,36)" stroke="rgb(3,6,36)" stroke-width="1" opacity="1" d="M 112 136 Q 115.8 135 117 137.5 L 112 138 L 112 136 Z " /><path fill="rgb(3,6,36)" stroke="rgb(3,6,36)" stroke-width="1" opacity="1" d="M 139.5 136 Q 143.3 135.3 144 137.5 L 140 138 L 141 142 L 131 141.5 Q 133.8 137.3 139.5 136 Z " /><path fill="rgb(3,6,36)" stroke="rgb(3,6,36)" stroke-width="1" opacity="1" d="M 48 140 L 57.5 140 L 58 142 L 48.5 142 L 48 140 Z " /><path fill="rgb(3,6,36)" stroke="rgb(3,6,36)" stroke-width="1" opacity="1" d="M 64 140 L 72.5 140 L 74 141.5 L 64 142 L 64 140 Z " /><path fill="rgb(3,6,36)" stroke="rgb(3,6,36)" stroke-width="1" opacity="1" d="M 93 140 Q 97.9 138.4 96 144 L 92 142.5 L 93 140 Z " /><path fill="rgb(3,6,36)" stroke="rgb(3,6,36)" stroke-width="1" opacity="1" d="M 115 140 Q 124.2 138.6 129 142.5 Q 129.9 145.5 125.5 144 L 123.5 142 L 115 142 L 115 140 Z " /><path fill="rgb(3,6,36)" stroke="rgb(3,6,36)" stroke-width="1" opacity="1" d="M 75.5 142 Q 81.3 140.3 80 144 Q 75.3 145 75.5 142 Z " /><path fill="rgb(3,6,36)" stroke="rgb(3,6,36)" stroke-width="1" opacity="1" d="M 23.5 144 L 26 145.5 Q 27 150 24.5 151 L 22 145.5 L 23.5 144 Z " /><path fill="rgb(3,6,36)" stroke="rgb(3,6,36)" stroke-width="1" opacity="1" d="M 166 145 Q 171.2 142.9 170 147.5 L 167.5 151 Q 164.8 149.6 166 145 Z " /></svg>